/* XPM */
static char *a942b68fe8284fa9c9136653ca2780ccN18QuNGB8Miw55ju[] = {
/* columns rows colors chars-per-pixel */
"50 50 213 2 ",
"   c #122F6D",
".  c #15346E",
"X  c #18346D",
"o  c #16386E",
"O  c #15366B",
"+  c #132E74",
"@  c #163573",
"#  c #183772",
"$  c #163973",
"%  c #193A74",
"&  c #15357A",
"*  c #19337D",
"=  c #163B7C",
"-  c #1C3B7B",
";  c #203E7C",
":  c #1B406E",
">  c #1C4275",
",  c #17407A",
"<  c #1C437B",
"1  c #1E4B7F",
"2  c #174077",
"3  c #224B7B",
"4  c #204977",
"5  c #3C547C",
"6  c #3E4A68",
"7  c #153981",
"8  c #1C3B81",
"9  c #153989",
"0  c #1A4483",
"q  c #1F4983",
"w  c #1E4D89",
"e  c #1C458B",
"r  c #214C85",
"t  c #224D8C",
"y  c #265385",
"u  c #23538B",
"i  c #28568B",
"p  c #26598D",
"a  c #295A8C",
"s  c #234F92",
"d  c #255591",
"f  c #285698",
"g  c #295C9C",
"h  c #265999",
"j  c #34668C",
"k  c #2D639B",
"l  c #2E6392",
"z  c #3A7096",
"x  c #2E64A1",
"c  c #326AA5",
"v  c #3268AC",
"b  c #3A79AB",
"n  c #3874A8",
"m  c #3C7DB4",
"M  c #3D7BBC",
"N  c #3370BB",
"B  c #435D8C",
"V  c #465E92",
"C  c #47618B",
"Z  c #4A638D",
"A  c #466493",
"S  c #4B6393",
"D  c #576E93",
"F  c #5B709C",
"G  c #5C7295",
"H  c #427797",
"J  c #447CA7",
"K  c #3879C5",
"L  c #3E81BA",
"P  c #5A97AF",
"I  c #4688BB",
"U  c #508CB8",
"Y  c #4E92B8",
"T  c #5E94BF",
"R  c #6E82A5",
"E  c #7587AB",
"W  c #69A6BE",
"Q  c #3F86C0",
"!  c #458FC6",
"~  c #458DC8",
"^  c #458AC8",
"/  c #548FCE",
"(  c #4C93C3",
")  c #4C95CB",
"_  c #5396CE",
"`  c #569BC9",
"'  c #438DD4",
"]  c #4087DB",
"[  c #4D9AD1",
"{  c #539CD4",
"}  c #649EC0",
"|  c #4FA1CD",
" . c #51A0C8",
".. c #4FA2D5",
"X. c #53A1D6",
"o. c #58A6D6",
"O. c #57A6DB",
"+. c #58A5DA",
"@. c #57ABDC",
"#. c #59ACDB",
"$. c #58ADD7",
"%. c #59B1D5",
"&. c #67A9CA",
"*. c #6FB4C0",
"=. c #66B4D8",
"-. c #62A9D5",
";. c #4B93E1",
":. c #4D9FF6",
">. c #4EA3EB",
",. c #5BA4E4",
"<. c #59ABE2",
"1. c #54A3ED",
"2. c #5DB4E2",
"3. c #4EA2F5",
"4. c #4EA4F8",
"5. c #52A4F5",
"6. c #55ACF5",
"7. c #5AACF5",
"8. c #52A5F8",
"9. c #55ABF8",
"0. c #5CAEF9",
"q. c #5AA6F1",
"w. c #5BB4F9",
"e. c #78ABE3",
"r. c #61B5E5",
"t. c #64BEE4",
"y. c #65BDEA",
"u. c #67B7E6",
"i. c #77B5EC",
"p. c #72B5E7",
"a. c #61B4F5",
"s. c #64BAF9",
"d. c #69BAF3",
"f. c #69A8E5",
"g. c #7ACBDE",
"h. c #66C3ED",
"j. c #69C3ED",
"k. c #67CAEE",
"l. c #77C9EB",
"z. c #6ED1EC",
"x. c #73D8EE",
"c. c #65C5F3",
"v. c #68C6F3",
"b. c #66CBF6",
"n. c #6ACCF6",
"m. c #66C6F9",
"M. c #69C6FA",
"N. c #67CCF9",
"B. c #69CBF9",
"V. c #7CCDF6",
"C. c #72CEFA",
"Z. c #7BCDF9",
"A. c #71C6F8",
"S. c #6AD1F6",
"D. c #6AD1F9",
"F. c #67D2F7",
"G. c #73D2F5",
"H. c #7BD4F6",
"J. c #7ADAF5",
"K. c #74D2F9",
"L. c #7CD4FA",
"P. c #7BDBF9",
"I. c #71D8F0",
"U. c #7CE0F9",
"Y. c #B0C2C7",
"T. c #ACC9D2",
"R. c #BAC5D7",
"E. c #82CEE1",
"W. c #83C9F1",
"Q. c #8ADDF3",
"!. c #83D4FA",
"~. c #82DBFB",
"^. c #8ADEFB",
"/. c #88D2F0",
"(. c #85E1FC",
"). c #8CE5FC",
"_. c #89E8F6",
"`. c #91E6FC",
"'. c #92ECFC",
"]. c #9EE9F3",
"[. c #8DF3FC",
"{. c #94F3FD",
"}. c #9BF4FD",
"|. c #9CFCFE",
" X c #A9F4F6",
".X c #A5F5FC",
"XX c #A5FBFE",
"oX c #AAFBFD",
"OX c #A9F6F9",
"+X c #ABF0F0",
"@X c #ACD5F1",
"#X c #DDD8C7",
"$X c #DAEDDF",
"%X c #E8E8DA",
"&X c #F9EDDC",
"*X c #F2EFDF",
"=X c #F5F0D6",
"-X c #E6F1D5",
";X c #D3D9E3",
":X c #DADFE7",
">X c #D2D7E2",
",X c #C7E8E8",
"<X c #DDE2E9",
"1X c #D7E7E7",
"2X c #D6F2E5",
"3X c #E1E4EB",
"4X c #E6E9EF",
"5X c #E6F6E5",
"6X c #F1F9E0",
"7X c #ECEEF1",
"8X c #EEF0F4",
"9X c #FFFFFF",
"0X c gray97",
/* pixels */
"9X9X9X9X9X9X9X9X9X9X9X9X9X9X9X9X9X9X9X9X9X9X9X9X9X9X9X9X9X9X9X9X9X9X9X9X9X9X9X9X9X9X9X9X9X9X9X9X9X9X",
"9X9X9X9X9X9X9X9X9X9X9X9X9X9X9X9X9X9X9X9X9X9X9X9X9X9X9X9X9X9X9X9X9X9X9X9X9X9X9X9X9X9X9X9X9X9X9X9X9X9X",
"9X9X9X9X9X9X9X9X9X9X9X9X9X9X9X9X9X9X9X9X9X9X9X9X9X9X9X9X9X9X9X9X9X9X9X9X9X9X9X9X9X9X9X9X9X9X9X9X9X9X",
"9X9X9X9X9X9X9X9X9X9X9X9X9X9X9X9X9X9X9X9X9X9X9X9X9X9X9X9X9X9X9X9X9X9X9X9X9X9X9X9X9X9X9X9X9X9X9X9X9X9X",
"9X9X9X9X9X9X9X9X9X9X9X9X9X9X9X9X9X9X9X9X9X9X9X9X9X9X9X9X9X9X9X9X9X9X9X9X9X9X9X9X9X9X9X9X9X9X9X9X9X9X",
"9X9X9X9X9X9X9X9X9X9X9X9X9X9X9X9X9X9X9X9X9X9X9X9X9X9X9X9X9X9X9X9X9X9X9X9X9X9X9X9X9X9X9X9X9X9X9X9X9X9X",
"9X9X9X9X9X9X9X9X9X9X9X9X9X9X9X9X9XV = @ @ @ o o o o O o @ @ @ @ @ & B 9X9X9X9X9X9X9X9X9X9X9X9X9X9X9X",
"9X9X9X9X9X9X9X9X9X9X9X9X9X9X9X9X0XZ # . . . . . . . . . . . . . @ @ B 9X9X9X9X9X9X9X9X9X9X9X9X9X9X9X",
"9X9X9X9X9X9X9X9X9X9X9X<XS S S V Z ` @.@.<.@.O.O.X.O.O.O.@.O.@.O.O.<._ V Z S S Z <X9X9X9X9X9X9X9X9X9X",
"9X9X9X9X9X9X9X9X9X9X9X;X- & % % % <.B.N.N.B.N.B.N.N.N.B.B.B.B.N.B.B.<.% % - = o >X9X9X9X9X9X9X9X9X9X",
"9X9X9X9X9X9X9X9X9X9X9X;X& 7 % % @ @.D.B.N.N.B.n.N.N.N.B.B.B.N.B.B.D.#.# & * * % >X9X9X9X9X9X9X9X9X9X",
"9X9X9X9X9X9X9X9X0X- - i b.m.h.v.v.i O . @ @ $ $ $ = # $ @ $ % $ $ X y v.j.c.c.k.i - - 9X9X9X9X9X9X9X",
"9X9X9X9X9X9X9X0X9X# $ u N.B.B.n.n.a o $ @ @ @ @ @ @ @ @ @ @ @ # & X 3 n.C.B.B.B.s @ % 9X0X9X9X9X9X9X",
"9X9X9X9X9X9X4X3X3Xy r c n.B.c.r.t.k r r r q q 3 3 q r q q q q q r q l K.K.n.B.n.v t r 3X3X3X9X9X9X0X",
"9X9X9X9X9X9Xj * & D.B.B.n.v.#.* @ #.D.n.B.N.N.N.m.M.N.B.N.D.N.N.N.B.L.XXXXK.B.B.N.B.S.% % > 0X9X9X9X",
"9X9X9X9X9X0XV @ & n.B.B.n.S.2.+ 7 O.n.B.B.N.m.N.0 & = , k.v.M.B.B.N.K.|.XXK.B.B.B.B.N.- * - 0X9X9X0X",
"9X9X9X9X9X9Xj $ @ n.n.2.x c b ) _ d.F.N.N.b.y.t.5 6 1 u t.y.N.M.n.B.n.P.~.`.'.'.K.B.b.& = - 9X9X9X0X",
"9X9X9X9X0X9XB o o N.B.#.7 7 f v.b.B.N.N.N.c.a   $X&XA.v.@ l v.N.B.B.n.B.B.}.XXXXI.b.b.@ = - 0X9X0X0X",
"9X9X9X7X7X8XA 8 , y.h.O.w e g n.N.B.B.D.! w Y.#Xe.e.{.'.:.Q 0 I n.B.N.B.n.}.XX|.P.v.z.< 4 < 8X7X7X0X",
"9X9X9X% = % #.B.n.O O d D.B.n.N.N.B.N.r.U 3 T.1Xq.q. X X8.Q 0 I d.n.N.B.D.B.N.N.}.XXXXB.N.n.% - 8 0X",
"9X9X9X% @ o #.m.B.@ @ u N.N.N.N.v.n.o.  P  Xi.,.8.3.*X2X8.9.v.m X +.b.D.B.B.n.n.}.XXXXN.N.B.X # 3 0X",
"9X9X9X& # # #.N.B.. % u n.N.N.v.N.[ Y H -.!.a.a.w.9.2X,X4.w.D.` J ( [ v.B.B.B.M.}.XXXXN.B.N.X o 8 9X",
"9X9X9X@ @ # #.m.N.. @ u N.B.B.F.j.% j oX!.8.A.B.B.C.XX}.8.w.D.(..Xj & v.B.N.B.M.}.XXXXB.M.n.. @ ; 9X",
"9X9X9X& # X #.b.N.@ % u B.B.n.b b &.&.Z.0.:.s.M.n.n.U.(.L.A.w.C.^.&.} n m B.N.B.}.XXXXB.B.n.. $ ; 9X",
"9X9X9X@ % # #.m.N.. @ u B.B.n.% 4 oX^.5.8.8.s.m.N.n.b.C..X`.8.s.D.{..X< - n.N.M.{.XXXXB.N.n.X $ - 9X",
"9X9X9X@ @ # #.N.N.o @ u N.b.n.$ - n.J.|.C.8.9.6.v.C.XXXXXX).4.4.8.8.5.& $ n.N.B.}.XXXXM.B.n.X $ ; 9X",
"9X9X9X* @ # #.b.n.@ @ u N.B.v.$ % B.L.XXZ.5.9.9.~.^.^.^.!.!.H.s.8.A.H.< $ n.B.B.{.XXXXN.N.N.. # - 9X",
"9X9X9X@ @ X #.m.n.@ @ u N.B.n.* , n.L.XXZ.9.4.4..X.XM.m.5.s.oXL.8.`..X> $ n.N.B.}.XXXXB.B.n.X $ 3 9X",
"9X9X9X@ $ $ #.M.B.@ @ u N.B.B.$ < }.).d.!.`.`.`.2X2X6.9.5.0.L.~.`.A.d.= $ v.N.M.{.XXXXB.N.N.X X - 9X",
"9X9X9X* # X #.b.n.o $ u N.B.n.> 3 ].Q.7.Z.}.oXOX-X6X8.9.8.7.K.(.}.r.>.0 < N.B.B.}.XXXXN.N.n.X @ ; 9X",
"9X9X9X@ @ # #.b.n.. $ u N.B.n.v.j.> z .XZ.5.2X*Xl.l.5.9.b.G.}.!.1.u = y.c.B.B.B.}.XXXXB.B.n.X $ ; 9X",
"9X9X9X% @ X #.b.n.. . u N.n.B.c.j.g n E.l.a.@X,X_.U.i.i./.Q.).p.' k a d.M.N.B.B.{.XX.XB.B.n.. @ ; 9X",
"9X9X9X@ # # %.B.B.. . u N.n.B.B.b.b...  T  Xw.4..XOX&X&X&X,X:.K & %.F.N.B.B.B.B.}.XXXXB.N.n.# $ - 9X",
"9X9X9X= ; ; =.N.S.. . t S.B.n.n.n.B.n.h.b 3 2.m.$X$XW.W.f.;.9 J r.n.N.N.N.B.B.B.}.oXXXD.n.n.% % 8 9X",
"9X9X9XR F E U ~ ~ c n b ) ! { n.n.B.n.b.L & @.B.5X*XN.m.4.Q + I b.B.B.B.n.L.~.U.).)._.( ( ( E R E 9X",
"9X9X9X9X0X0Xj & & n.k.$.* 8 f n.n.n.n.N.n.N.u . ].OX3.>.@ a n.n.B.N.B.B.B.}.OXXXJ.N.b.. # % 9X0X9X9X",
"9X9X9X9X9X0XC $ @ n.v.O.= = d v.v.v.B.B.b.b.L n W W K K b ! B.B.B.N.B.n.n.}..XXXC.M.N.@ - - 9X9X9X9X",
"9X9X9X9X9X9XC $ @ D.M.b.N.S.@.  % O.B.B.N.B.N.N.2 > & 7 S.b.B.B.B.B.G.XXOXG.D.n.n.N.N.= % % 0X9X9X9X",
"9X9X9X9X9X0XV % @ S.b.b.v.N.+.$ ; ,.n.B.B.N.N.N.o.{ { { N.N.B.N.B.N.I.XX.XG.n.B.n.B.S.- % > 9X9X9X9X",
"9X9X9X9X9X0XE F F O.X.#.D.n.y.x g t.P.J.J.J.P.P.P.P.H.P.P.H.J.J.J.H.P.[.{.G.B.N.O.|  .D G F 0X9X9X9X",
"9X9X9X9X9X9X9X9X0X8 * f B.n.n.B.N.}.XXXXXXXXXXXXXXXXoXXXXXXXXXXXXXXX}.B.n.B.B.b.d @ $ 9X9X9X9X9X9X9X",
"9X9X9X9X9X9X9X9X9X= % d b.S.B.n.N.}.XXXXXXXXoXXXXXoXXXXXoXXXoXXXoXoX{.n.D.n.B.b.a $ @ 9X9X9X9X9X9X9X",
"9X9X9X9X9X9X9X9X9X:X:XR.i u u r r =.K.K.K.K.C.G.K.K.K.G.K.K.K.K.K.K.u.r r t t d R.:X:X9X9X9X9X9X9X9X",
"9X9X9X9X9X9X9X9X9X9X9X>X: o $ = X #.N.B.B.N.B.m.M.B.B.N.B.B.M.M.B.B.<.$ % % * % ;X9X9X9X9X9X9X9X9X9X",
"9X9X9X9X9X9X9X9X9X9X9X<XC S S S C ` @.O.+.o.+.o.+.o.+.+.+.o.+.o.O.o.` C Z Z S A <X9X9X9X9X9X9X9X9X9X",
"9X9X9X9X9X9X9X9X9X9X9X9X9X0X9X9X9XZ = @ + @ + @ @ + @ & @ @ @ X @ & V 9X0X9X9X9X9X9X9X9X9X9X9X9X9X9X",
"9X9X9X9X9X9X9X9X9X9X9X9X9X9X9X9X9XA $ $ @ @ @ @ @ @ @ @ $ $ $ o o o B 9X9X9X9X9X9X9X9X9X9X9X9X9X9X9X",
"9X9X9X9X9X9X9X9X9X9X9X9X9X9X9X9X9X9X9X9X9X9X9X9X9X9X9X9X9X9X9X9X9X9X9X9X9X9X9X9X9X9X9X9X9X9X9X9X9X9X",
"9X9X9X9X9X9X9X9X9X9X9X9X9X9X9X9X9X9X9X9X9X9X9X9X9X9X9X9X9X9X9X9X9X9X9X9X9X9X9X9X9X9X9X9X9X9X9X9X9X9X",
"9X9X9X9X9X9X9X9X9X9X9X9X9X9X9X9X9X9X9X9X9X9X9X9X9X9X9X9X9X9X9X9X9X9X9X9X9X9X9X9X9X9X9X9X9X9X9X9X9X9X"
};
