/* XPM */
static char *ad00194bbc67471c8caebad20c47b3704J37E94sfVy0QGPw[] = {
/* columns rows colors chars-per-pixel */
"50 50 159 2 ",
"   c #010101",
".  c #070209",
"X  c #0C0C0C",
"o  c #0F0E10",
"O  c #141414",
"+  c #1D1D1D",
"@  c #241B29",
"#  c #2C1C34",
"$  c #242424",
"%  c gray18",
"&  c #2E2037",
"*  c #323232",
"=  c #38373A",
"-  c #3D3A3F",
";  c #4D1668",
":  c #4D1F64",
">  c #4E2066",
",  c #572472",
"<  c #434243",
"1  c gray29",
"2  c #565656",
"3  c #626262",
"4  c #686868",
"5  c #673D81",
"6  c #7B22A7",
"7  c #7C23A8",
"8  c #8129AE",
"9  c #832BB0",
"0  c #883EB3",
"q  c #863AB2",
"w  c #82609B",
"e  c #8B44B5",
"r  c #8F45BA",
"t  c #9347BF",
"y  c #914CBC",
"u  c #8A67A5",
"i  c #8C68A8",
"p  c #9A6AB8",
"a  c #A57CBE",
"s  c #9800CE",
"d  c #9A05D0",
"f  c #9D0BD4",
"g  c #9E10D6",
"h  c #9F13D8",
"j  c #A017DA",
"k  c #A21ADC",
"l  c #9B2AD3",
"z  c #A420DF",
"x  c #A32DDE",
"c  c #AA2FDF",
"v  c #A625E2",
"b  c #A72AE4",
"n  c #A92BE6",
"m  c #AA2EE8",
"M  c #A533E0",
"N  c #AD35E7",
"B  c #AD33EA",
"V  c #AF3AE9",
"C  c #B03DE2",
"Z  c #B13CED",
"A  c #B33FF0",
"S  c #974AC4",
"D  c #9A49C5",
"F  c #9D4DCC",
"G  c #A04BCB",
"H  c #A24ED1",
"J  c #AC4CD4",
"K  c #A74EDB",
"L  c #AA50D7",
"P  c #A654D8",
"I  c #AF51DB",
"U  c #B452DF",
"Y  c #9D64C0",
"T  c #A772C0",
"R  c #A87CC3",
"E  c #B14CEB",
"W  c #B452EE",
"Q  c #B850ED",
"!  c #BD5BEE",
"~  c #B442F1",
"^  c #BA4DF6",
"/  c #BB50F7",
"(  c #BB5CF3",
")  c #BE55FA",
"_  c #BF5AFA",
"`  c #BA6EE9",
"'  c #C15CFD",
"]  c #C267EE",
"[  c #C46EF0",
"{  c #C361FF",
"}  c #C76AFE",
"|  c #C96FFF",
" . c #C775F1",
".. c #C679F4",
"X. c #C970FF",
"o. c #CD7BFF",
"O. c #808080",
"+. c #8E8E8E",
"@. c #97939A",
"#. c #9A979D",
"$. c gray60",
"%. c #A085B2",
"&. c #AA98B5",
"*. c #A893B7",
"=. c #B19DBD",
"-. c #A8A4AB",
";. c #B0ACB2",
":. c #B2A1BE",
">. c #B7B7B8",
",. c #B098C0",
"<. c #B68CD0",
"1. c #CAA2D8",
"2. c #CE85F5",
"3. c #CF80FF",
"4. c #D183FF",
"5. c #D38BFF",
"6. c #D492F4",
"7. c #D399F6",
"8. c #D795FF",
"9. c #D897FF",
"0. c #D99BFF",
"q. c #DAA4F6",
"w. c #DCA3FF",
"e. c #DFABFF",
"r. c #E0ADFF",
"t. c #E5BEF9",
"y. c #C8C1CE",
"u. c #CBC8CE",
"i. c #D1CBD5",
"p. c #D4CCDB",
"a. c #D6D3D9",
"s. c #DAD7DC",
"d. c #DDD7E1",
"f. c #E2CAF1",
"g. c #E9C5FE",
"h. c #ECCDFF",
"j. c #E6C2FC",
"k. c #EED4FE",
"l. c #EFD9FD",
"z. c #E5D3F2",
"x. c #F0D7FF",
"c. c #F1DCFD",
"v. c #E6E6E6",
"b. c #E8E1EC",
"n. c #EFEBF1",
"m. c #F3EEF6",
"M. c #F4E3FE",
"N. c #F7EBFF",
"B. c #F8EDFF",
"V. c #F5F1F8",
"C. c #FAF2FF",
"Z. c #FBF6FF",
"A. c #FBF4FF",
"S. c #FDFAFF",
"D. c #FDFCFD",
"F. c #FEFDFF",
"G. c white",
"H. c #FFFEFF",
"J. c #FFFFFF",
/* pixels */
"G.G.G.G.G.G.G.G.G.G.G.G.G.G.G.G.G.G.G.G.G.G.G.G.G.G.G.G.G.G.G.G.G.G.G.G.G.G.G.G.G.G.G.G.G.G.G.G.G.G.",
"G.G.G.G.G.G.G.G.G.G.G.G.G.G.G.G.G.G.G.G.G.G.G.G.G.G.G.G.G.G.G.G.G.G.G.G.G.G.G.G.G.G.G.G.G.G.G.G.G.G.",
"G.G.G.G.G.G.G.G.G.G.G.G.G.G.G.G.G.G.G.G.G.G.G.G.G.G.G.G.G.G.G.G.G.G.G.G.G.G.G.G.G.G.G.G.G.G.G.G.G.G.",
"G.G.G.G.G.G.G.G.G.G.G.G.G.G.G.G.G.G.G.G.G.G.G.G.G.G.G.G.G.G.G.G.G.G.G.G.G.G.G.G.G.G.G.G.G.G.G.G.G.G.",
"G.G.G.G.G.G.G.G.G.G.G.G.G.G.G.G.G.G.G.G.G.G.< = + + $ $ < G.G.G.G.G.G.G.G.G.G.G.G.G.G.G.G.G.G.G.G.G.",
"G.G.G.G.G.G.G.G.G.G.G.G.G.G.G.G.G.G.G.G.G.G.* * + X   + $ v.>.G.G.G.G.G.G.G.G.G.G.G.G.G.G.G.G.G.G.G.",
"G.G.G.G.G.G.G.G.G.G.G.G.G.G.G.G.G.G.G.G.u.* + + O <.4.5 O + $ * G.G.G.G.G.G.G.G.G.G.G.G.G.G.G.G.G.G.",
"G.G.G.G.G.G.G.G.G.G.G.G.G.G.G.G.G.- *   X + +   e.e.4.o.`   + +     * -.G.G.G.G.G.G.G.G.G.G.G.G.G.G.",
"G.G.G.G.G.G.G.G.G.G.G.G.G.G.G.G.G.< *   X + +   { { Z B l   $ +     * ;.G.G.G.G.G.G.G.G.G.G.G.G.G.G.",
"G.G.G.G.G.G.G.G.G.G.G.G.G.G.* * + + + + O   + + O F V ; O + +   + $ + + + * * G.G.G.G.G.G.G.G.G.G.G.",
"G.G.G.G.G.G.G.G.G.G.@.* X   + + + + + @ O   O O + X   + + O X   + + + + + + +     * D.G.G.G.G.G.G.G.",
"G.G.G.G.G.G.G.G.G.G.#.* O   + + + + + + O   O O + + + + + O O   + + + + + + +     * D.G.G.G.G.G.G.G.",
"G.G.G.G.G.G.G.G.G.* $ + + +     + + + + + +     O O O O O     + + + + + +     + + + * * G.G.G.G.G.G.",
"G.G.G.G.G.G.G.    + + + + + + +       O O O ' { { { { ' ' { P O O O       + + $ + + + + $ G.G.G.G.G.",
"G.G.G.G.G.G.G.    + + + + + + +   .   & # # ' ' ' ) ) ' ' _ L # & &       + + + + + + +   G.G.G.G.G.",
"G.G.G.G.G.G.G.      O + + + + $ O O O { / m n m m m m m m m m m { ' + O O + + + + +       G.G.G.G.G.",
"G.G.G.G.G.a.* + + + X   o O O @ { B m m m m m m m m m m m m m m m m m ~ { O O O O   + + + $ * G.G.G.",
"G.G.G.G.G.i.* + + + O X X o : , / N m m m m ~ ~ ~ ~ ~ ~ ~ ~ Z m m m m A / > : X X X + + $ $ * G.G.G.",
"G.G.G.G.G.y.* $ + + O O   . m m m m m m m m { { { { { { { { _ m m m m m m m m     O + + + $ * G.G.G.",
"G.G.G.G.G.G.O + + + @ + 9 B m m m m m { { { G.G.G.G.G.G.G.G.Z.{ ' { m m m m m m x + + + + + O G.G.G.",
"G.G.G.G.G.s.  + + + + + 9 B m B ^ ^ ^ x.x.x.6.6.6.6.6.6.6.6.t.k.k.x.^ ^ ^ m m m x + + + + O   G.G.G.",
"G.G.G.G.* * *       o O 7 m m B { { { G.G.G.m m n m m m m m ! G.G.G.{ { { m m m x O       O * * 3 G.",
"G.G.G.G.* % $ + O + X . 7 B { { { S.S.n n n d s s s s s s s f m n m G.r.{ { { m x   O + O + $ * 2 G.",
"G.G.G.G.% % + + + + X   6 m { } B.` ! f f f v n n b v n b b v f f f Q 2.g.{ ' m x   + + + + + * * G.",
"G.G.G.G.    $ + + + + O 8 N o.3.B.N b s s d m m B B N B B m n d s s n  .j.8.5.N x O + + + + +     G.",
"G.G.G.G.      + + + O O y } G.G.m s s s h m m B { ' { { ' m m m s s s j m G.G.{ ( O + + + +       G.",
"G.G.G.i.X X X + O + O o y { G.G.m s s B ~ { { { G.G.G.G.G.' { { m m s k m G.G.' ( o O + O O X X < G.",
"G.G.G.p.* * *           R 0.M.c.v h f m ~ { 9.9.M.M.M.M.M.9.8.{ m B g k z M.M.9.7.        O * * 4 G.",
"G.G.G.p.* % + + + + + O a.D.m n s n m m ~ ' G.G.{ ' { { X.G.A.' B m m k s m B G.G.O + + $ + + * 3 G.",
"G.G.G.=.* % + + + + + O =.M.m n s m m { e.G.{ { m m m m N { 4.G.{ { m j s m B G.G.O + + + + + * * G.",
"G.G.G.=.* % + + + + O O =.M.m n s n m { e.G.{ ' m z j n B { 3.G.{ { B j s b B D.z.O + + + + + * 1 G.",
"G.G.G.d.      O O O X   &.M.m n s n m { w.G.{ { m h s n B ' 4.G.{ { m j s B B Z.f.  O O O X       G.",
"G.G.G.G.$ $ $   X   O O =.Z.m m s m m { w.G.{ { m m m m B ' 4.G.{ ' m k s m B C.m.O X   X o $ $ $ G.",
"G.G.G.n.* * *       O + :.Z.m n s m m V ( 9.N.B.) ) ) ) } A.B.9.Z Z m k s B B Z.V.+ .     o * * * G.",
"G.G.G.,.* % + + + + + + =.k.Z C s b m B ~ { G.G.} } } } o.G.Z.' m m m k s V Z k.f.+ + + + + + * * G.",
"G.G.G.*.X     + $ O O O y { G.G.B s s B ~ ' { { G.G.G.G.G.{ { { m B s j m G.G.{ ( O O O + +       G.",
"G.G.G.%.      + + O O O y { G.G.m s s s j B B B } } | } } m B B d d s j m G.G.{ ( O O O + O       G.",
"G.G.S.=.* $             0 ' B.A.[ g f s h v m m ) ) ' { ' m B z s s f C [ N.B.) W             * * G.",
"G.G.G.*.      * * + + + 8 B { } G.V m s s s m m m n m n m m b s s s m q.G.{ ' m x + + + * $       G.",
"G.G.G.w       * * + + + 9 B ' { { G.G.m m m s s d d d d s s f m B m G.g.{ { { m x + + + * $       G.",
"G.G.G.w   X * + + + + + 9 B ^ ^ { h.h.q.q.q.j j j j j j j j c q.q.q.h.0.' ^ ^ m x + + + + $ *     G.",
"G.G.G.u * % + + + + O O 8 m m B { { ' G.G.G.m B m m B m m m ] G.G.G.{ { { m m m x O + + + + + * * G.",
"G.G.G.i * % + + + + + O 8 m m m m m m { { { G.G.G.G.G.G.G.G.Z.{ { { m m m m m m x O + + + + + * * G.",
"G.G.G.p       + + O X   q ^ m m m m m Z ~ Z w.0.0.w.0.w.w.w.9.A Z ~ m m m m B / E   O O $ O     - G.",
"G.G.G.T * * *           e { B B B m m m m m ' ' { ' { { { ' ' m m m m B B B m { (         o * * 4 G.",
"G.G.G.a * * *           s.G.{ ' ' B m m m m m m m m m m m m m m m m m ~ { ' { G.G.        o * * +.G.",
"G.G.G.1.* % + + + + O O Y 5.G.G.' ' ' ' ^ m m m m n m m B m m B _ _ _ ' { G.G.o...O + + + + + * $.G.",
"G.G.G.b.  X + + + O X   e { G.S.| | } } ' Z B Z B Z B N B B B B | | X.X.| g.j.{ (   O O + + +   O.G.",
"G.G.G.G.    + + + O X   e { { } G.G.G.G.e.' { { { { ' { { ' { { k.k.l.c.B.{ { { (   O O + + +   O.G.",
"G.G.G.G.e e t D J D S S F F F F G U G F F F F F F H U F F F F F F F L I F F F F F S S D H S r y G.G."
};
