/* XPM */
static char *fd14428d151a428dc92ffcbf44a0dfb4bLajPbXygpSCGzh4[] = {
/* columns rows colors chars-per-pixel */
"50 50 224 2 ",
"   c #030201",
".  c #0A0301",
"X  c #080808",
"o  c #140302",
"O  c #140A06",
"+  c #170504",
"@  c #0D1B1C",
"#  c #191716",
"$  c #16100B",
"%  c #2C0904",
"&  c #240503",
"*  c #360B07",
"=  c #281A0A",
"-  c #291A1A",
";  c #3C1C1B",
":  c #371710",
">  c #3B1507",
",  c #17211B",
"<  c #37201A",
"1  c #1A1D2E",
"2  c #1D2D2F",
"3  c #2D2B2B",
"4  c #282525",
"5  c #312D2F",
"6  c #382925",
"7  c #262C32",
"8  c #253134",
"9  c #383133",
"0  c #33302F",
"q  c #450B06",
"w  c #42130A",
"e  c #4D1509",
"r  c #52160C",
"t  c #58190D",
"y  c #410F11",
"u  c #431918",
"i  c #5A1715",
"p  c #671B13",
"a  c #55280E",
"s  c #58241D",
"d  c #5D3112",
"f  c #473810",
"g  c #672716",
"h  c #742C17",
"j  c #6C361A",
"k  c #783D1C",
"l  c #631921",
"z  c #482A24",
"x  c #5A2826",
"c  c #543029",
"v  c #563834",
"b  c #4E3D3C",
"n  c #692926",
"m  c #6A3527",
"M  c #612B31",
"N  c #773633",
"B  c #7B382C",
"V  c #4C4414",
"C  c #754531",
"Z  c #523F41",
"A  c #514245",
"S  c #862E1B",
"D  c #83341B",
"F  c #8A361D",
"G  c #AA2C1E",
"H  c #9D2D24",
"J  c #9D2E2D",
"K  c #83392A",
"L  c #9D312C",
"P  c #97342A",
"I  c #9C2E31",
"U  c #853139",
"Y  c #853935",
"T  c #9E3333",
"R  c #95383D",
"E  c #862F2B",
"W  c #A32E2C",
"Q  c #A92E2C",
"!  c #A02D27",
"~  c #A23226",
"^  c #A3312C",
"/  c #AA352A",
"(  c #A4392A",
")  c #AC392B",
"_  c #AA3426",
"`  c #B13A2B",
"'  c #A42E32",
"]  c #AC2E38",
"[  c #B42F32",
"{  c #A43232",
"}  c #AB3432",
"|  c #AB3A33",
" . c #A83937",
".. c #B63A32",
"X. c #B32A22",
"o. c #C73F2E",
"O. c #D63C2E",
"+. c #DD3F36",
"@. c #82491D",
"#. c #884624",
"$. c #994425",
"%. c #964F3F",
"&. c #975B31",
"*. c #A7462A",
"=. c #B6452D",
"-. c #AB522F",
";. c #AA4438",
":. c #B64330",
">. c #BE4037",
",. c #B5573A",
"<. c #AB5233",
"1. c #816D22",
"2. c #977428",
"3. c #BE7031",
"4. c #AB6D2D",
"5. c #DB5F2F",
"6. c #C74D32",
"7. c #CC4C34",
"8. c #CB4E39",
"9. c #C84739",
"0. c #D14D30",
"q. c #C35332",
"w. c #CD5535",
"e. c #CD5832",
"r. c #CB5339",
"t. c #C7593E",
"y. c #C8593C",
"u. c #D25435",
"i. c #D55B35",
"p. c #DE5D35",
"a. c #D35539",
"s. c #D9543B",
"d. c #D45A3A",
"f. c #DE5D39",
"g. c #DA5434",
"h. c #C54D2E",
"j. c #E3542C",
"k. c #E85A2F",
"l. c #E25D35",
"z. c #E95C36",
"x. c #E25C3A",
"c. c #DE602E",
"v. c #DD6134",
"b. c #DE623B",
"n. c #D66435",
"m. c #DD7135",
"M. c #DE7836",
"N. c #DA793C",
"B. c #C86C32",
"V. c #E16035",
"C. c #E3633B",
"Z. c #E66939",
"A. c #E37536",
"S. c #E47B36",
"D. c #E37238",
"F. c #E47B39",
"G. c #E97D3D",
"H. c #EC7B35",
"J. c #AC5A57",
"K. c #B45A55",
"L. c #BA5B56",
"P. c #B55B5A",
"I. c #B75C59",
"U. c #B8584C",
"Y. c #B56042",
"T. c #B76159",
"R. c #B55D62",
"E. c #B96765",
"W. c #C45641",
"Q. c #CB5945",
"!. c #D45840",
"~. c #E65E42",
"^. c #CF6241",
"/. c #DA6543",
"(. c #DC7343",
"). c #E96548",
"_. c #C37C7B",
"`. c #C37C77",
"'. c #C26E67",
"]. c #B08A2E",
"[. c #B18F32",
"{. c #E58235",
"}. c #E9823B",
"|. c #E88836",
" X c #EF9F3C",
".X c #F09E3C",
"XX c #DBB63E",
"oX c #F2A83E",
"OX c #ECA43F",
"+X c #DA8543",
"@X c #E69441",
"#X c #D2B141",
"$X c #F2A442",
"%X c #F3AB41",
"&X c #F3B442",
"*X c #F3B942",
"=X c #F1B84C",
"-X c #EDC946",
";X c #F5C445",
":X c #F6CC46",
">X c #F8CC47",
",X c #F8CF48",
"<X c #F6C04A",
"1X c #F6D047",
"2X c #F6D248",
"3X c #F8D048",
"4X c #F9D247",
"5X c #C68685",
"6X c #E1BDBA",
"7X c #EBD6D5",
"8X c #ECD9D7",
"9X c #EBD9D8",
"0X c #EDDBDA",
"qX c #E6C9CA",
"wX c #EFE1DF",
"eX c #F1E2E2",
"rX c #F6EEEE",
"tX c #FDFBFB",
"yX c #FEFDFD",
"uX c #FEFEFE",
"iX c white",
"pX c #FFFEFE",
"aX c #FDFCFC",
"sX c #FFFFFF",
/* pixels */
"iXiXiXiXiXiXiXiXiXiXiXiXiXiXiXiXiXiXiXiXiXiXiXiXiXiXiXiXiXiXiXiXiXiXiXiXiXiXiXiXiXiXiXiXiXiXiXiXiXiX",
"iXiXiXiXiXiXiXiXiXiXiXiXiXiXiXiXiXiXiXiXiXiXiXiXiXiXiXiXiXiXiXiXiXiXiXiXiXiXiXiXiXiXiXiXiXiXiXiXiXiX",
"iXiXiXiXiXiXiXiXiXiXiXiXiXiXiXiXiXiXiXiXiXiXiXiXiXiXiXaXiXiXiXiXiXiXiXiXiXiXiXiXiXiXiXiXiXiXiXiXiXiX",
"iXiXiXiXiXiXiXiXiXiXiXiXiXiXiXtXP.Q Q ! W W W ! W W W W ^ L H ^ } 8XiXiXiXiXiXiXiXiXiXiXiXiXiXiXiXiX",
"iXiXiXiXiXiXiXiXiXiXiXtXiXiXiXaXI.' ^ Q W W W W W W ^ W L L L L } 8XiXiXtXiXiXiXiXiXiXiXiXiXiXiXiXiX",
"iXiXiXiXiXiXiXiXiXiXtX7X9X9X9X0XI.) ) _ _ ( _ _ ( / / / _ / / / ..6X8X8X9X9XwXiXiXiXiXiXiXiXiXiXiXiX",
"iXiXiXiXiXiXiXiXiXiX8X/ ^ ^ ^ L w.v.p.f.f.p.p.p.p.l.l.V.l.l.l.l.p./ { { ^ ' K.tXiXiXiXiXiXiXiXiXiXiX",
"iXiXiXiXiXiXiXiXiXiX8X^ L ^ L L u.V.l.l.f.f.l.p.f.l.f.l.b.V.V.v.b.} T { ! Q K.tXiXiXiXiXiXiXiXiXiXiX",
"iXiXiXiXiXiXtXtXR.E.K.a.w.w.u.u.` ) ) / ) ) ` ) ) ` ` ) ` ) ` ` ` 7.a.u.w.a.t.P.P._.iXiXiXiXiXiXiXiX",
"iXiXiXiXiXiXtXtX^ T ) f.f.f.l.z.` I ^ W ! H J L W ! L ^ W ^ ! ! ^ g.z.l.l.x.w.W / K.iXiXiXiXiXiXiXiX",
"iXiXiXiXiXiXaXtXT I [ x.p.l.z.l.| I J J W J J J I L ! H H J J J I a.~.x.C.x.u.W L J.aXaXiXiXiXiXiXiX",
"iXiXiXiXiXL.^  .f.f.x.f.l.a.W ' r.f.l.f.b.f.x.x.x.x.V.f.v.v.l.f.l.%X;X:Xb.p.v.p.l.a.} ^ 7XiXiXiXiXiX",
"iXiXiXiXtXK.' L d.i.l.f.p.i.L ! w.v.v.p.V.f.f.> q * S z.f.f.f.f.~.&X:X;Xb.c.b.f.f.a.W { 7XiXiXiXiXiX",
"iXiXiXiXtXL.^ ^ f.f.l.s.f.w.~ ~ e.p.f.z.V.Z./.$ .   s V.b.v.f.b.b.&X<X;X(.m.n.z.f.d.! L 7XtXiXiXiXiX",
"iXiXiXiXtXK.L J l.z.g.! L ) p.p.p.l.v.z.z.q & 5 7 , - + *.z.x.x.z.x.l.p.:X:XoXC.p.a.L T 7XiXiXiXiXiX",
"iXiXiXiXtXI.L ' g.l.s.] L ( p.p.l.l.z.-.;.= X 6 < h t w F $.C.f.f.x.l.f.:X:X&X~.b.!.{ { 7XiXiXiXiXiX",
"iXiX`.`._.Q.h.7.:...:.8.h.q.p.l.p.k.k.h o # 1 1 z z.h.I * o !.g.C.x.x.V.|.}.|..XoX.X9.6.'.`.`.iXiXiX",
"iXiX^ { I u.l.p.' J ) l.V.p.V.5.k.,.j g p S P #.#.C N x s i h h C.v.V.b.l.C.A.>X>X*Xf.p.) L Q iXiXiX",
"iXiXW W J a.f.l.J W } x.v.v.p.f.C.<.  i H r.b.).,.7 3 5 U } . o ).C.b.f.x.b.A.>X:X&Xx.p.) J W iXiXiX",
"iXiX! W J u.f.l.J J ) l.f.l.z.n.> = @ p J s z v m W.B 4 u u 4 4 : e b.p.f.v.A.>X:X&Xx.p.) J ! iXiXiX",
"iXiX! Q J r.f.p.J ^ ) p.f.f.i.,.o O - x R - - 5 c z.C , - - 4 9 . % ^.i.V.f.A.:X:X&Xx.l.) L _ iXiXiX",
"iXiXW W J u.x.f.J L ) g.f.b.o X Z N [ M 5 7 7 8 z 0.E 8 Y.k.6 8 , , . r l.V.S.:X1X&Xx.p.) J W iXiXiX",
"iXiX! Q J a.l.f.J J / 5.p.b.o O C N U v 9 c x x n >.N z %.,.x c ; <   t z.p.S.:X1X&Xx.i.) L ^ iXiXiX",
"iXiXW W J u.f.l.J L _ p.p.C.o & z.;.@ 0 b ..0.O. .8 x G ; @ ^ X.Q H   r z.l.S.:X2X&Xx.f.) H ! iXiXiX",
"iXiXW W J a.f.f.J ^ ) 5.p.C.o   . r i.j . } 9.v b 5 4 - U I + . . X   r x.p.S.:X1X&Xl.p.) J ^ iXiXiX",
"iXiX! W J a.f.p.J J / p.p.b.o   X e l.j . Q !.Z Z 5 4 4 U X.O X X X   r j.p.A.:X2X&Xx.i.) J ^ iXiXiX",
"iXiX! Q J u.f.l.J W / 5.l.C.o = 2X*XH.j . ~ o.- #     . n H /.x.G.F.  r x.l.A.>X,X&Xx.p.) J Q aXiXiX",
"iXiXL W J u.f.p.W ! ` l.p.x.p d 2.]. X4.d =.s.n s   O : p p b.D.@.#.g S l.l.F.>X3X&Xx.p.( H ^ iXiXiX",
"iXiXL ! J w.f.f.I W ) g.5.l.j.i.. f -X$X{.n.p.O./   u Q :   N.N.  * z.z.l.f.S.>X3X&Xx.f.) J _ iXiXiX",
"iXiXJ ^ J w.f.p.J W _ p.v.p.f.n.$.k f 4.<XC h u.6.E | r.-.&.a a $.( z.C.f.l.F.>X>X&Xx.p.( J W iXiXiX",
"iXiXL ^ J u.v.l.I W / 5.n.5.f.p.j.*.& 1.-XV = i.e.9.0.v.m.+X* % C.p.l.f.f.v.F.>X>X&Xx.l.) L ^ iXiXiX",
"iXiX^ ^ L w.V.v.W J _ 5.l.l.f.f.l.n.y.k = [.XXD.3.% k M.a = ,.y.C.v.v.C.f.f.A.1X2X&Xl.l...^ Q iXiXiX",
"iXiXrXrXrXK.^ ^ i.s.7.} / ) f.p.f.l.c.S q ].XX|.3.> k 3.g > n.p.C.x.z.v.;X;XoXD.D.n.H ( qXrXrXiXiXiX",
"iXiXiXiXtXK.L ^ x.z.g.! L ( p.p.p.l.l.V.).% . XX;XS.k   *.z.i.v.l.x.x.p.>X=XoXV.k.g.^ ^ 9XaXiXiXiXiX",
"iXiXiXiXtXI.^ { f.x.w.! L ( f.f.f.l.l.l.V.S h 2.2.$.F h q.V.f.f.V.v.Z.m.:X<X$Xz.5.i.H ^ 7XaXiXiXiXiX",
"iXiXiXiXtXP.{ Q f.p.f.f.c.i.W ! w.l.f.l.V.x.v.o O   g V.v.i.f.f.v.oX:X:X).z.x.l.i.w.J ^ 7XaXiXiXiXiX",
"iXiXiXiXtXP.} ) b.z.f.f.f.i.! H u.x.x.x.x.f.f.d.d.d.b.~.x.s.x.f.C.*X;X;Xl.l.l.p.f.i.^ / 7XiXiXiXiXiX",
"iXiXiXiXtX5XE.E.w.r.u.l.f.d.` ) m.{.S.{.G.}.}.{.|.|.}.}.F.F.F.F.S.OX$X.Xb.v.f.w.w.W.E.E.wXiXiXiXiXiX",
"iXiXiXiXiXiXiXtX{ ^ ) p.l.x.l.f.&X3X,X,X,X,X>X>X:X:X:X:X>X>X>X;X>XA.l.l.f.f.w.J L J.iXaXiXiXiXiXiXiX",
"iXiXiXiXiXiXtXtX . .) i.p.f.x.~.&X3X:X>X,X,X>X>X:X:X:X:X>X>X>X>X>XM.x.p.f.l.s.{  .J.iXiXiXiXiXiXiXiX",
"iXiXiXiXiXiXiXaXwXwX6X` ) _ _ / n.D.D.D.D.D.D.A.D.D.D.D.D.D.D.D.m.=.( ~ / / U.wXwXeXiXiXiXiXiXiXiXiX",
"iXiXiXiXiXiXiXiXiXtX7XQ ' ^ Q ' i.V.f.V.v.p.p.l.l.p.l.p.l.p.l.l.f./ { L W ' K.tXiXiXiXiXiXiXiXiXiXiX",
"iXiXiXiXiXiXiXiXiXiXwXR.R.E.P.E.W.u.u.u.u.u.w.u.u.u.u.u.u.u.i.u.6.L.T.T.L.T.5XtXiXiXiXiXiXiXiXiXiXiX",
"iXiXiXiXiXiXiXiXiXiXiXtXtXtXtXtXP.{ W J J J J L J J J J J J J I T 8XaXaXtXiXaXiXiXiXiXiXiXiXiXiXiXiX",
"iXiXiXiXiXiXiXiXiXiXiXiXaXiXiXaXI.Q J J W W W W W J W J J J W J ) 8XiXiXiXiXiXiXiXiXiXiXiXiXiXiXiXiX",
"iXiXiXiXiXiXiXiXiXiXiXiXaXaXiXiXiXiXiXiXiXiXiXiXiXiXiXiXiXiXiXiXiXiXiXiXiXiXiXiXiXiXiXiXiXiXiXiXiXiX",
"iXiXiXiXiXiXiXiXiXiXiXiXiXiXiXiXiXiXiXiXiXiXiXiXiXiXiXiXiXiXiXiXiXiXiXiXiXiXiXiXiXiXiXiXiXiXiXiXiXiX",
"iXiXiXiXiXiXiXiXiXiXiXiXiXiXiXiXiXiXiXiXiXiXiXiXiXiXiXiXiXiXiXiXiXiXiXiXiXiXiXiXiXiXiXiXiXiXiXiXiXiX",
"iXiXiXiXiXiXiXiXiXiXiXiXiXiXiXiXiXiXiXiXiXiXiXiXiXiXiXiXiXiXiXiXiXiXiXiXiXiXiXiXiXiXiXiXiXiXiXiXiXiX",
"iXiXiXiXiXiXiXiXiXiXiXiXiXiXiXiXiXiXiXiXiXiXiXiXiXiXiXiXiXiXiXiXiXiXiXiXiXiXiXiXiXiXiXiXiXiXiXiXiXiX"
};
