/* XPM */
static char *result[] = {
/* columns rows colors chars-per-pixel */
"50 50 172 2 ",
"   c #000000",
".  c #0A0B0B",
"X  c #080502",
"o  c #1D1008",
"O  c #121212",
"+  c #1D1D1D",
"@  c #14161B",
"#  c #3B2614",
"$  c #191A33",
"%  c #1B2238",
"&  c #202020",
"*  c #313131",
"=  c #393939",
"-  c #462613",
";  c #4D301A",
":  c #66391E",
">  c #64361A",
",  c #4A2F21",
"<  c #653A20",
"1  c #594125",
"2  c #79523A",
"3  c #6B4C31",
"4  c #2D4352",
"5  c #2C5173",
"6  c #39637E",
"7  c #414141",
"8  c #4B4B4B",
"9  c #4B4643",
"0  c #505151",
"q  c #5B5B5B",
"w  c #756654",
"e  c #616161",
"r  c #67696C",
"t  c #686868",
"y  c #707070",
"u  c gray50",
"i  c #7F7975",
"p  c #EB3323",
"a  c #EC3D2E",
"s  c #84583D",
"d  c #A35629",
"f  c #A85A2B",
"g  c #B95D2B",
"h  c #846037",
"j  c #EE4D3F",
"k  c #CA6D34",
"l  c #D06F32",
"z  c #C5662F",
"x  c #E37A3A",
"c  c #9A7B67",
"v  c #F16D61",
"b  c #E68038",
"n  c #F08D34",
"m  c #A08474",
"M  c #E78849",
"N  c #EA945A",
"B  c #E3A65F",
"V  c #D89F6C",
"C  c #EB9D6A",
"Z  c #F38076",
"A  c #EEA97C",
"S  c #F1AF73",
"D  c #28489D",
"F  c #1C46B8",
"G  c #2E4DA3",
"H  c #224CBE",
"J  c #4A609B",
"K  c #667884",
"L  c #4565BA",
"P  c #4965B4",
"I  c #0318F5",
"U  c #1B2EF6",
"Y  c #2852C5",
"T  c #2F59CB",
"R  c #2B55C8",
"E  c #315BCD",
"W  c #355FD1",
"Q  c #3D67D9",
"!  c #2A5FE5",
"~  c #3265E8",
"^  c #3A6CEB",
"/  c #4E70CF",
"(  c #426CDF",
")  c #4252F8",
"_  c #456FE1",
"`  c #4974E5",
"'  c #4372EE",
"]  c #4A78F1",
"[  c #507DF4",
"{  c #5B7EE7",
"}  c #626FF9",
"|  c #4686B0",
" . c #52A6DC",
".. c #5A82F6",
"X. c #5C86F8",
"o. c #5D81E5",
"O. c #7397F9",
"+. c #4BABE9",
"@. c #56B0EB",
"#. c #56ADE5",
"$. c #62B6EC",
"%. c #7BC2EF",
"&. c #818181",
"*. c #888888",
"=. c #988D80",
"-. c #919191",
";. c #93969B",
":. c #96989C",
">. c #9C9C9C",
",. c #B39C8F",
"<. c #BCA99D",
"1. c #999BA2",
"2. c #9DA0A6",
"3. c #92AABA",
"4. c #A1A1A0",
"5. c #ADADAD",
"6. c #B2B2B2",
"7. c gray",
"8. c #F59991",
"9. c #EEAD86",
"0. c #E6B686",
"q. c #F1B58B",
"w. c #E8BE98",
"e. c #F1BD9D",
"r. c #D6BFB1",
"t. c #F8B3AD",
"y. c #D5B289",
"u. c #CDC1B4",
"i. c #818CFA",
"p. c #95A7FB",
"a. c #A1A9FC",
"s. c #86C7F1",
"d. c #8FCBF2",
"f. c #A3D4F4",
"g. c #B1DBF6",
"h. c #BCE0F7",
"j. c #C0C0C0",
"k. c gray80",
"l. c #C3C5C8",
"z. c #D2D2D2",
"x. c #DCDCDC",
"c. c #D8D6D6",
"v. c #D9CEC7",
"b. c #FACCC8",
"n. c #E4D4C3",
"m. c #F8DECE",
"M. c #F5DCCC",
"N. c #FCDCDA",
"B. c #E4DCD8",
"V. c #F9E0CE",
"C. c #EEE3D5",
"Z. c #ECE5DC",
"A. c #FAE6DB",
"S. c #C0C6FD",
"D. c #C8CDFD",
"F. c #C9D4FD",
"G. c #D8DBFE",
"H. c #D0D4FD",
"J. c #D5EBFA",
"K. c #DEF0FB",
"L. c #E3E3E3",
"P. c #EFEFEF",
"I. c #EEE9E7",
"U. c #FDE6E4",
"Y. c #FEEEED",
"T. c #F8EFE9",
"R. c #E0E2FE",
"E. c #EBEDF7",
"W. c #ECF6FD",
"Q. c #FEF6F3",
"!. c #FFFFFF",
"~. c #F5F5F4",
/* pixels */
"!.!.!.!.!.!.!.!.!.!.!.!.!.!.!.!.!.!.!.!.!.!.!.!.!.!.!.!.!.!.!.!.!.!.!.!.!.!.!.!.!.!.!.!.!.!.!.!.!.!.",
"!.!.!.!.!.!.!.!.!.!.!.!.!.!.!.!.!.!.!.!.!.!.!.!.!.!.!.!.!.!.!.!.!.!.!.!.!.!.!.!.!.!.!.!.!.!.!.!.!.!.",
"!.!.!.!.!.!.!.!.!.!.!.!.!.!.!.!.!.!.!.!.!.!.!.!.!.!.!.!.!.!.!.!.!.!.!.!.!.!.!.!.!.!.!.!.!.!.!.!.!.!.",
"!.!.!.!.!.!.!.!.!.!.!.!.!.!.!.!.!.!.!.!.!.!.!.!.!.!.!.!.!.!.!.!.!.!.!.!.!.!.!.!.!.!.!.!.!.!.!.!.!.!.",
"!.!.!.!.!.!.!.!.!.!.!.!.!.!.!.!.!.!.!.!.!.!.!.!.!.!.!.!.!.!.!.!.!.!.!.!.!.!.!.!.!.!.!.!.!.!.!.!.!.!.",
"!.!.!.!.!.!.!.!.!.!.!.!.!.!.!.!.!.!.!.!.!.!.!.!.!.!.!.!.!.!.!.!.!.!.!.!.!.!.!.!.!.!.!.!.!.!.!.!.!.!.",
"!.!.!.!.!.!.!.!.!.!.!.!.!.!.!.!.!.!.&                           !.!.!.!.!.!.!.!.!.!.!.!.!.!.!.!.!.!.",
"!.!.!.!.!.!.!.!.!.!.!.!.!.!.!.E.x.x.7 * * * * * * * * * * * * * x.x.z.!.!.!.!.!.!.!.!.!.!.!.!.!.!.!.",
"!.!.!.!.!.!.!.!.!.!.!.!.!.!.!.,     x.q q q q q q q q q q q q !.      !.!.!.!.!.!.!.!.!.!.!.!.!.!.!.",
"!.!.!.!.!.!.!.!.!.!.!.!.!.!.  7.!.1.  !.!.!.!.!.!.!.!.!.!.!.!.  & !.!.  z.!.!.!.!.!.!.!.!.!.!.!.!.!.",
"!.!.!.!.!.!.!.!.!.!.!.!.z.6.0 ;.0 -.!.!.!.!.!.!.!.!.!.!.!.!.!.!.L.0 6.8 >.6.!.!.!.!.!.!.!.!.!.!.!.!.",
"!.!.!.!.!.!.!.!.!.!.!.!.y   z.6.!.!.!.!.!.!.!.!.!.!.!.!.!.!.!.!.!.!.L.t *   !.!.!.!.!.!.!.!.!.!.!.!.",
"!.!.!.!.!.!.!.!.!.!.!.  -.. P.!.!.!.!.!.!.!.!.!.!.!.!.!.!.!.!.!.!.!.!.!.= !.  !.!.!.!.!.!.!.!.!.!.!.",
"!.!.!.!.!.!.!.!.!.!.!.  . !.!.!.!.!.!.!.!.!.!.!.!.!.!.!.!.!.!.!.!.!.!.!.!.    !.!.!.!.!.!.!.!.!.!.!.",
"!.!.!.!.!.!.!.!.!.!.!.  q !.!.!.!.!.&.y y y y y y y y y y y y y !.!.!.!.!.-.  !.!.!.!.!.!.!.!.!.!.!.",
"!.!.!.!.!.!.!.!.!.!.!.  -.!.!.!.!.  o.X.X.! X.^ X.X.X.X.~ X.X.X.  5.!.!.!.!.  !.!.!.!.!.!.!.!.!.!.!.",
"!.!.!.!.!.!.Q.Z.!.!.!.. -.!.!.x.% X.X.X.X.! X.' ~ ~ ! X.~ X.X.X...5 z.!.!.!.X !.!.!.!.!.!.!.!.!.!.!.",
"!.!.!.!.!.!.w B 0.!.!.* -.!.x.J X.X.X.X.X.! X.' ^ ^ ! X.~ X.X.H.F.X.P *.!.!.@ !.!.!.!.!.!.!.!.!.!.!.",
"!.!.!.!.!.  B B !.>.  &.-.!.z.L X.X.X.W ( X.~ X.' ! X.] ..X.T X.O.p.X.0 !.!.= X O !.!.!.!.!.!.!.!.!.",
"!.!.!.!.e B B B !.2.* 5.-.!.k.L X.` W W Y Y X.X.X.X.X.X.Q W T R Y X.X.0 !.!.8 * * !.!.!.!.!.!.!.!.!.",
"!.!.!.!.e B B B !.4.* 5.-.!.k.L X.W W W Y Y R X.X.X.X.` T W T Y Y ` X.0 !.!.8 = * !.!.!.!.!.!.!.!.!.",
"!.!.!.!.y.B B n.!.4.* 5.-.!.z.L W W W W Y Y Y ` X.X.X.W W W T Y Y Y X.0 !.!.0 * * !.!.!.!.!.!.!.!.!.",
"!.!.!.!.!.B # C.!.4.* 5.-.!.z.D W W W W Y Y Y E W W W W T Q T Y Y Y E 0 !.!.0 * * !.!.!.!.!.!.!.!.!.",
"!.!.!.!.!.B h C.!.4.@ -.-.!.k.G Y Y Y Y F F F E Q Q Q Y Y R F F F F Q 0 !.!.7 O & !.!.!.!.!.!.!.!.!.",
"!.!.!.!.!.B B C.!.>.  &.-.!.k.L X.Y Y Y F F H X.X.X.X._ Y Y H F H ( X.0 !.!.= X . !.!.!.!.!.!.!.!.!.",
"!.!.!.!.!.B B C.!.!.!.* -.!.z.L X.X.R Y F X.X.X.X.X.X.X.X.Y H F X.X.X.0 !.!.O !.!.e   x x x   P.!.!.",
"!.!.j.!.!.B 1 C.!.!.!.!.&.!.!.y L ..X.W ( [ [ X.X.X.X.....X.E X.[ / 7 !.!.r.;.!.6.f M.Q.N x C 9 j.!.",
"!.!.  8 !.B 1 C.!.!.!.P.O !.!.!.z.$ { X.X.! ~ X.X.X.X.] ! X.X.X.$ 1.!.!.!.  | ; c.A.x 9.A.x e.!.  !.",
"!.&.  & !.B B C.!.!.O O y   !.!.!.!.+                           !.!.!.!.*   &.x M 9.!.x m.!.x Q.  !.",
"!.6.    = B h =.!.0 L.  y !.y L.!.!.!.!.!.!.!.!.!.!.!.!.!.!.!.!.!.!.!.&.L.  c !.x 9.!.m.x 4.2 X !.!.",
"!.!.    >.B , u.  X L.  y !.!.7 O !.!.!.!.!.!.!.!.!.!.!.!.!.!.!.!.q O ~.!.  : !.U.x !.m.- P.P.O !.!.",
"!.!.!.  >.u u k.n L.  O y p !.!.!.!.&                           !.!.!.- x x : x Q.;   !.!.!.e !.!.!.",
"!.!.!.  :.!.!.S n 0.    . !.v U.!.!.!.!.!.!.J.+.#.$.+.s.!.!.!.!.!.!.J.# k o k O   5.!.~.c s s B.!.!.",
"!.!.!.O l.5.5.x.n 0.X 1.r !.Y.t.8.v Y.!.!.d.+.h.K.!.$.+.s.!.!.!.} } a.;.+ x c , . e e m T.!.!.r.m !.",
"!.!.!.+ L.!.!.I.n w.X !.r !.  j.!.!.j p p +.+.+.f.+.h.+.+.I I I !.!.!.  .   q.!.: : : !.!.!.!.!.: !.",
"!.!.  + L.m K V n w.L.. r !.F.H.S.G.D.!.R.+.+.+.W.J.f.+.+.!.U.b.Q.b.b.Y.Q.  A !.!.!.!.!.!.M.M.!.: !.",
"!.:.  + L.L.L.L.n.L.L.X + !.G.) I } G.!.E.+.+.K.W.E.f.+.+.!.T.m.U.p p Q.Q.  b C C !.!.!.9.b f Q.: !.",
"W.m     t &.u u + @ L.z.. !.U I J.E.!.  !.!.4 +.@.$.+.| P.!.m Q.!.U.p a N.  b b b b M M b g m I.!.!.",
"!.c X               L.z.. I I g.!.!.!.  f.+.+ !.    !.1.#.!.5 Q.!.!.!.p p   b b b b b b z : !.!.!.!.",
"!.| X               X . r i.a.4.m c | 5 J.!.6 &.    &.K ~.f.3.| u u u N.8.  f l b b x l d ,.!.!.!.!.",
"!.!.                  !.r !.!.7       +.+.+. .        5 +.+.+.        !.!.  <.: g g g : v.!.!.!.!.!.",
"!.!.!.& .         & P.!.r     7.!.!.!.      @ !.!.!.!.:.      !.!.!.!.      !.!.2 2 2 !.!.!.!.!.!.!.",
"!.!.!.!.l.4.>.4.4.!.!.!.l.;.;.L.!.!.!.:.;.;.2.!.!.!.!.z.:.:.:.!.!.!.!.;.;.;.!.!.!.!.!.!.!.!.!.!.!.!.",
"!.!.!.!.!.!.!.!.!.!.!.!.!.!.!.!.!.!.!.!.!.!.!.!.!.!.!.!.!.!.!.!.!.!.!.!.!.!.!.!.!.!.!.!.!.!.!.!.!.!.",
"!.!.!.!.!.!.!.!.!.!.!.!.!.!.!.z.j.j.j.j.j.j.j.j.j.j.j.j.j.j.j.j.j.j.j.!.!.!.!.!.!.!.!.!.!.!.!.!.!.!.",
"!.!.!.!.!.!.!.!.!.!.!.!.!.!.!.!.z.z.z.z.z.z.z.z.z.z.z.z.z.z.z.z.z.z.!.!.!.!.!.!.!.!.!.!.!.!.!.!.!.!.",
"!.!.!.!.!.!.!.!.!.!.!.!.!.!.!.!.!.!.!.!.!.!.!.!.!.!.!.!.!.!.!.!.!.!.!.!.!.!.!.!.!.!.!.!.!.!.!.!.!.!.",
"!.!.!.!.!.!.!.!.!.!.!.!.!.!.!.!.!.!.!.!.!.!.!.!.!.!.!.!.!.!.!.!.!.!.!.!.!.!.!.!.!.!.!.!.!.!.!.!.!.!.",
"!.!.!.!.!.!.!.!.!.!.!.!.!.!.!.!.!.!.!.!.!.!.!.!.!.!.!.!.!.!.!.!.!.!.!.!.!.!.!.!.!.!.!.!.!.!.!.!.!.!.",
"!.!.!.!.!.!.!.!.!.!.!.!.!.!.!.!.!.!.!.!.!.!.!.!.!.!.!.!.!.!.!.!.!.!.!.!.!.!.!.!.!.!.!.!.!.!.!.!.!.!."
};
