/* XPM */
static char *result[] = {
/* columns rows colors chars-per-pixel */
"50 50 199 2 ",
"   c #0F1F0C",
".  c #0E1F14",
"X  c #0F280D",
"o  c #15260E",
"O  c #19250E",
"+  c #162A0E",
"@  c #1B2A0E",
"#  c #1A310C",
"$  c #0D2612",
"%  c #152511",
"&  c #1B2613",
"*  c #152B14",
"=  c #1A2914",
"-  c #162C1B",
";  c #1D2D1A",
":  c #1E2718",
">  c #1B321B",
",  c #1C3B1E",
"<  c #173516",
"1  c #202416",
"2  c #202C15",
"3  c #222D1A",
"4  c #242618",
"5  c #24311C",
"6  c #1D2B26",
"7  c #1D3C21",
"8  c #232A28",
"9  c #233622",
"0  c #223C22",
"q  c #283521",
"w  c #2C3737",
"e  c #343A3F",
"r  c #1E4123",
"t  c #224024",
"y  c #25462B",
"u  c #29452C",
"i  c #29492D",
"p  c #284628",
"a  c #2B4E31",
"s  c #2D4D3D",
"d  c #274F34",
"f  c #314D3D",
"g  c #295533",
"h  c #34563D",
"j  c #335C3C",
"k  c #305737",
"l  c #45513B",
"z  c #416F3D",
"x  c #4C7E3A",
"c  c #343E45",
"v  c #2F4640",
"b  c #334D4A",
"n  c #3E4D4D",
"m  c #364547",
"M  c #2C5D42",
"N  c #315944",
"B  c #34534B",
"V  c #335D4A",
"C  c #385D4D",
"Z  c #385247",
"A  c #3A4E53",
"S  c #334F52",
"D  c #3D5252",
"F  c #345450",
"G  c #356442",
"H  c #396646",
"J  c #356945",
"K  c #3A6C44",
"L  c #34614A",
"P  c #3B664A",
"I  c #3B6C4A",
"U  c #376848",
"Y  c #3C714C",
"T  c #3D6959",
"R  c #3E7253",
"E  c #3E795A",
"W  c #484F42",
"Q  c #465142",
"!  c #495545",
"~  c #4C5A49",
"^  c #4A5947",
"/  c #545E4F",
"(  c #455358",
")  c #43475B",
"_  c #416A4D",
"`  c #4A604D",
"'  c #42734D",
"]  c #437B4B",
"[  c #447445",
"{  c #436F51",
"}  c #566252",
"|  c #596154",
" . c #417352",
".. c #427C56",
"X. c #41725D",
"o. c #447E5A",
"O. c #4A7D5E",
"+. c #497D56",
"@. c #5D705E",
"#. c #60745F",
"$. c #4E526B",
"%. c #515F63",
"&. c #5D646C",
"*. c #437B63",
"=. c #457B68",
"-. c #6E7767",
";. c #6D7769",
":. c #64667C",
">. c #777E75",
",. c #4C893E",
"<. c #498233",
"1. c #58A13E",
"2. c #3E8256",
"3. c #4C8941",
"4. c #45824E",
"5. c #4C8B4C",
"6. c #438245",
"7. c #4F9148",
"8. c #5E9E45",
"9. c #559749",
"0. c #438256",
"q. c #468A52",
"w. c #4C8D54",
"e. c #44835B",
"r. c #49835E",
"t. c #44895D",
"y. c #49895A",
"u. c #4E9155",
"i. c #549651",
"p. c #599954",
"a. c #629854",
"s. c #5BA04F",
"d. c #5EA252",
"f. c #63A446",
"g. c #62A34E",
"h. c #63AA4E",
"j. c #6BAE4C",
"k. c #62AC41",
"l. c #6DB646",
"z. c #6DB946",
"x. c #6CB54B",
"c. c #6FBA4A",
"v. c #65B549",
"b. c #70BA45",
"n. c #71BB4A",
"m. c #71B44A",
"M. c #64A752",
"N. c #64AB52",
"B. c #68AE52",
"V. c #6AAD58",
"C. c #6DB551",
"Z. c #6DBB53",
"A. c #73BC52",
"S. c #448261",
"D. c #498960",
"F. c #4B816A",
"G. c #468567",
"H. c #548766",
"J. c #598374",
"K. c #768472",
"L. c #656483",
"P. c #696C83",
"I. c #726E86",
"U. c #706685",
"Y. c #737484",
"T. c #747A8D",
"R. c #78718D",
"E. c #807E9A",
"W. c #76988C",
"Q. c #8A8D9D",
"!. c #858599",
"~. c #8889A3",
"^. c #8B93AB",
"/. c #8391A5",
"(. c #9396AC",
"). c #999BAC",
"_. c #8A8FB0",
"`. c #9389B1",
"'. c #9096B0",
"]. c #9B8BAA",
"[. c #93A7A6",
"{. c #9AA9B0",
"}. c #ACA8BD",
"|. c #B3BBB3",
" X c #AEB1C8",
".X c #B8BCCB",
"XX c #BFBDD5",
"oX c #C2BDD0",
"OX c #BDC6CF",
"+X c #CBCFCB",
"@X c #CFD1CE",
"#X c #D0D3CF",
"$X c #C1C4D4",
"%X c #CBC0D2",
"&X c #D2D5D1",
"*X c #D7D9D5",
"=X c #DEDFDD",
"-X c #DFE1DD",
";X c #FFFFFF",
/* pixels */
";X;X;X;X;X;X;X;X;X;X;X;X;X;X;X;X;X;X;X;X;X;X;X;X;X;X;X;X;X;X;X;X;X;X;X;X;X;X;X;X;X;X;X;X;X;X;X;X;X;X",
";X;X;X;X;X;X;X;X;X;X;X;X;X;X;X;X;X;X;X;X;X;X;X;X;X;X;X;X;X;X;X;X;X;X;X;X;X;X;X;X;X;X;X;X;X;X;X;X;X;X",
";X;X;X;X;X;X;X;X;X;X;X;X;X;X;X;X;X;X;X;X;X;X;X;X;X;X;X;X;X;X;X;X;X;X;X;X;X;X;X;X;X;X;X;X;X;X;X;X;X;X",
";X;X;X;X;X;X;X;X;X;X;X;X;X;X;X;X;X;X;X;X;X;X;X;X;X;X;X;X;X;X;X;X;X;X;X;X;X;X;X;X;X;X;X;X;X;X;X;X;X;X",
";X;X;X;X;X;X;X;X;X;X;X;X;X;X;X;X;X;X;X;X;X;X;X;X;X;X;X;X;X;X;X;X;X;X;X;X;X;X;X;X;X;X;X;X;X;X;X;X;X;X",
";X;X;X;X;X;X;X;X;X;X;X;X;X;X;X;X;X;X;X;X;X;X;X;X;X;X;X;X;X;X;X;X;X;X;X;X;X;X;X;X;X;X;X;X;X;X;X;X;X;X",
";X;X;X;X;X;X;X;X;X;X;X;X;X;X;X;X;X+X4 = = & % = % = = & % & = % & 3 &X;X;X;X;X;X;X;X;X;X;X;X;X;X;X;X",
";X;X;X;X;X;X;X;X;X;X;X;X;X;X;X;X;X+X; & O & & & & & & & & & & & & 2 *X;X;X;X;X;X;X;X;X;X;X;X;X;X;X;X",
";X;X;X;X;X;X;X;X;X;X;X;X>.~ ^ ~ ~ ^ I I I I I I I I I I I I I I I Y ` ~ ~ ~ ~ >.;X;X;X;X;X;X;X;X;X;X",
";X;X;X;X;X;X;X;X;X;X;X;XW ; - ; 4 0 0...o.e.........0.2.2.e.o.o.0.E t = = = = ! ;X;X;X;X;X;X;X;X;X;X",
";X;X;X;X;X;X;X;X;X;X;X;XQ & & = = 7 e.e.0.e.e.e.e.e.e.e.e.e.e.0.0...0 % % & 1 ^ ;X;X;X;X;X;X;X;X;X;X",
";X;X;X;X;X;X;X;X;X! = % Y 0...o.e.I = = = % = = = = = & = = & & = - I e.e.e.e.Y = o Q ;X;X;X;X;X;X;X",
";X;X;X;X;X;X;X;X;Xl = = I o.o.0.e.Y = > = = = = = = = & - = = ; = = R t.S.o.O.I % @ W ;X;X;X;X;X;X;X",
";X;X;X;X;X;X=X/ / _ J U ..0.o.u y d I J H P H H J J J J H H H P H H a.g.d.o.o.o.J U P | | -X;X;X;X;X",
";X;X;X;X;X;X+X& & P y.o.o.r.e.& = t t.e.e.e.e.e.U G J H e.e.e.e.e.e.x.x.Z.O.*.e.S.o. .= ; &X;X;X;X;X",
";X;X;X;X;X;X@X& & P y.e.e...e.& 1 0 e.o.e.o.e.t.> = = 3 0.0.e.e.e.2.j.z.c.e.o.t.t.e. .= ; #X;X;X;X;X",
";X;X;X;X;X;X@X% & I e.o.0 3 > ] ......o.e.e.k i x <.M L y j t.e.S.e.e.y.y.x.x.h.e.e. .@ 2 #X;X;X;X;X",
";X;X;X;X;X;X@X= & Y 2.e.0 ; = o...e.0.o.o...0 ; k.v.q.] = t o.e.o.e.e.*.0.z.c.N.e.0. .@ > #X;X;X;X;X",
";X;X;X;X;.;.@.j j d i i j G G e.e.e.e.0.k * f A l.z.c.j.B v * e.2.t.e.e.t.i.i.i.p.g.p.V G #.-.-.;X;X",
";X;X;X;X= = 0 e.t., & = Y e.e.e.e.0.t.Y f - d N h.B.z.x.V v - R Y e.O.*.O.e.S.w.b.b.C.*.t.r = = ;X;X",
";X;X;X;X% = 7 e.e.0 = = ' e.e.e.0.2.0.+ w C R y.D.e.b.l.S.E Z - - e.e.e.e.e.e.w.n.b.B.S.G.0 + = ;X;X",
";X;X;X;X= % 0 e.0.0 & ; Y e.e.0.e.r 0 ' ,.f._ C S.*.5.w.o.*.R I T 7 0 e.t.t.*.w.b.n.B.S.t.5 = = ;X;X",
";X;X;X;X= = 0 e.t.7 = = Y e.0.2.o.# # +.9.A.z j =.=.0.4.5.0.o.y.w.- < ..o.o.S.w.c.b.C.S.t.5 * = ;X;X",
";X;X;X;X& & 0 e.e.0 = = Y e.e., - j.m.h 3.A.l.v.V S 0.0.l.8.b C.x.X.*.- r e.S.w.c.z.N.S.t.0 = = ;X;X",
";X;X;X;X= % 0 t.e.0 = ; Y e.e., O M.V.s ,.Z.B.N.B B 5.7.n.s.b x.n. .X.+ 7 t.S.w.c.c.B.S.t.t = & ;X;X",
";X;X;X;X% = 0 e.t.7 & = Y e.e., % o.*.b ,.c.u.e.B B n.n.m.8.B x.A.s f O 7 e.S.w.c.c.B.S.e.5 & = ;X;X",
";X;X;X;X= = 0 r.e.0 = = Y e.e., & .XOX=.E B g.x.o.o.t.t.q.i.j.6.G./.!.O 0 e.S.w.b.z.B.o.e.0 @ = ;X;X",
";X;X;X;X= & 0 t.e.0 & ; Y e.0., o .X$X=.T S f.z.e.G.G.S.2.u.z.6.F.^.~.o r e.S.w.b.n.B.S.e.0 = = ;X;X",
";X;X;X;X= = 7 e.e.r = = Y e.e., o Q.Q.$XW.=.h.c.C.x.Z N z.1.D ^.'.L.P.& r o.S.w.n.m.B.e.t.0 & = ;X;X",
";X;X;X;X= = 0 e.e.0 & = Y e.0.g a &.%.}.[.W.9.s.l.v.I I ,.<.&.!.T.) ( u g e.o.w.n.z.N.*.t.5 = & ;X;X",
";X;X;X;X= = 0 t.q.7 = = Y e.e.E 2.% . (.}.%XJ.S.C.Z.D.S.A ( ].Y.P.$ $ e.t.e.S.w.c.c.C.S.e.0 & = ;X;X",
";X;X;X;X= = 0 r.t.5 = = Y 0.e.e.e.H P ( Y.).{.{.i.9.L L T.T.R.c c P U o.e.e.t.u.n.c.N.o.e.0 & = ;X;X",
";X;X;X;X= = 0 e.0.t = = Y e.e.e.e.e.D.X &./. XOXH.H.A ( `.~.L.6 X t.t.o.o.e.e.u.n.m.B.S.t.0 & = ;X;X",
";X;X;X;X5 > i o...r = = K e...e.0.e.e.t.k o Y.Q.XXOX^._.L.$.X Y 2.t.e.e.e.t.t.u.n.x.M...e.u 9 q ;X;X",
";X;X;X;X;X;X&X; O P y...0 = = e.e.e.e.e. .K A m (.).I.I.e m K 0.0.e.o.e.e.n.c.N.o.e.{ @ 4 &X;X;X;X;X",
";X;X;X;X;X;X@X= 2 K 0.o.0 & = ..0.e.0.O.e.e.t % Q.~.U.:.+ 7 t.E o.O.e.e.e.c.z.N.e.0.' = ; +X;X;X;X;X",
";X;X;X;X;X;X@X= = I e.0.a u y G H K 0.e.e.t.O. .w w 8 8 ' ..e.o.o.o.i.i.7.h.M.p.e.0.Y = ; &X;X;X;X;X",
";X;X;X;X;X;X@X= 2 P ..e.o.o.e.; 6 0 e.o.o.e.o.e.> 7 7 > o.+.o.o.e.e.M.b.b.t.t.t.e.o._ & 3 #X;X;X;X;X",
";X;X;X;X;X;X+X4 2 ' 0.0.e.0.e.& 4 r o.t.e.e.e.o.O.t.y.y.D.e.t.y.e.e.h.x.x.e.t.o.o.o.{ ; 3 &X;X;X;X;X",
";X;X;X;X;X;X;X;X;X^ ; = I e.e.0.0.w.n.n.n.x.n.c.l.m.x.c.n.c.m.l.l.n.u.o.e.o.t.I 1 & W ;X;X;X;X;X;X;X",
";X;X;X;X;X;X;X;X;XQ ; : Y ..o...0.w.C.n.n.A.x.n.n.x.n.n.n.n.n.n.n.A.w.6.4.o.O.R 1 = ! ;X;X;X;X;X;X;X",
";X;X;X;X;X;X;X;X;XK./ ^ I P K K K ] B.M.N.M.N.N.N.h.N.N.N.N.N.M.N.N.[ K K H P P / | >.;X;X;X;X;X;X;X",
";X;X;X;X;X;X;X;X;X;X;X;XQ = & % + 7 e.e.S.e.e.e.e.e.t.e.e.e.y.e.e.t.0 = = = = Q ;X;X;X;X;X;X;X;X;X;X",
";X;X;X;X;X;X;X;X;X;X;X;Xl 2 = 3 5 y 2.e.e.e.e.0.0.e.0.e.e.e.0.0.e.e.y 5 3 3 ; l ;X;X;X;X;X;X;X;X;X;X",
";X;X;X;X;X;X;X;X;X;X;X;X-X*X*X*X&X|., , 5 , , 5 , , , , 7 , , , , y |.*X&X*X*X=X;X;X;X;X;X;X;X;X;X;X",
";X;X;X;X;X;X;X;X;X;X;X;X;X;X;X;X;X+X- & = & & O = & & & = & & 1 & ; &X;X;X;X;X;X;X;X;X;X;X;X;X;X;X;X",
";X;X;X;X;X;X;X;X;X;X;X;X;X;X;X;X;X@X3 3 5 5 3 5 5 3 5 5 5 5 5 5 3 3 *X;X;X;X;X;X;X;X;X;X;X;X;X;X;X;X",
";X;X;X;X;X;X;X;X;X;X;X;X;X;X;X;X;X;X;X;X;X;X;X;X;X;X;X;X;X;X;X;X;X;X;X;X;X;X;X;X;X;X;X;X;X;X;X;X;X;X",
";X;X;X;X;X;X;X;X;X;X;X;X;X;X;X;X;X;X;X;X;X;X;X;X;X;X;X;X;X;X;X;X;X;X;X;X;X;X;X;X;X;X;X;X;X;X;X;X;X;X",
";X;X;X;X;X;X;X;X;X;X;X;X;X;X;X;X;X;X;X;X;X;X;X;X;X;X;X;X;X;X;X;X;X;X;X;X;X;X;X;X;X;X;X;X;X;X;X;X;X;X"
};
