/* XPM */
static char *_ca45ff750fa4b20f42e89ba2b173c5b8p50YCQd3x1jkE7v[] = {
/* columns rows colors chars-per-pixel */
"50 50 221 2 ",
"   c #07041B",
".  c #0B041C",
"X  c #0C0619",
"o  c #10031E",
"O  c #070525",
"+  c #0B0524",
"@  c #0D0925",
"#  c #0D042B",
"$  c #0E0A2C",
"%  c #06072A",
"&  c #110626",
"*  c #120923",
"=  c #13062C",
"-  c #130A2D",
";  c #1E032E",
":  c #17122E",
">  c #0C0434",
",  c #0E0934",
"<  c #0E033D",
"1  c #120632",
"2  c #130933",
"3  c #14053A",
"4  c #1C053B",
"5  c #150C3B",
"6  c #19093F",
"7  c #1B0631",
"8  c #1B1131",
"9  c #160542",
"0  c #1D0645",
"q  c #1C0B44",
"w  c #1D064A",
"e  c #170849",
"r  c #1A0754",
"t  c #230642",
"y  c #23064C",
"u  c #25094E",
"i  c #2B0543",
"p  c #2B0655",
"a  c #260A54",
"s  c #2C0C56",
"d  c #2D075A",
"f  c #240A5C",
"g  c #2B0C5B",
"h  c #250754",
"j  c #330A54",
"k  c #330B5D",
"l  c #32145C",
"z  c #311952",
"x  c #2F1A59",
"c  c #3B384E",
"v  c #3C3655",
"b  c #3C3954",
"n  c #3F395B",
"m  c #2C0A64",
"M  c #2C0E68",
"N  c #340A64",
"B  c #3A0B64",
"V  c #330B6A",
"C  c #3A0C6B",
"Z  c #2F1660",
"A  c #341264",
"S  c #3A1166",
"D  c #3D1863",
"F  c #3C126A",
"G  c #36156A",
"H  c #340E73",
"J  c #390D75",
"K  c #361274",
"L  c #3D107C",
"P  c #3B1376",
"I  c #2B0971",
"U  c #433D56",
"Y  c #443E5B",
"T  c #463A5A",
"R  c #400F6F",
"E  c #43156E",
"W  c #411A6D",
"Q  c #481565",
"!  c #451A73",
"~  c #491D77",
"^  c #4A1C7C",
"/  c #44127A",
"(  c #463561",
")  c #49366A",
"_  c #4F227D",
"`  c #47276D",
"'  c #46415B",
"]  c #464154",
"[  c #534D68",
"{  c #55546C",
"}  c #6C667D",
"|  c #6A687B",
" . c #726F7F",
".. c #3C1785",
"X. c #470F80",
"o. c #431484",
"O. c #411389",
"+. c #4D158E",
"@. c #4F1989",
"#. c #531484",
"$. c #53158B",
"%. c #581987",
"&. c #4A1A94",
"*. c #551695",
"=. c #581B9B",
"-. c #561D97",
";. c #601993",
":. c #512381",
">. c #6C2C9A",
",. c #581DA6",
"<. c #5722A6",
"1. c #6021A3",
"2. c #6122AF",
"3. c #7033A9",
"4. c #6323B2",
"5. c #672BBD",
"6. c #6827BD",
"7. c #7528B8",
"8. c #7431BF",
"9. c #6435A5",
"0. c #6C5687",
"q. c #672AC3",
"w. c #6C29C4",
"e. c #6E2ACA",
"r. c #6927C3",
"t. c #732CCB",
"y. c #732AC5",
"u. c #6C2FD0",
"i. c #7B2EDC",
"p. c #762AD3",
"a. c #7B32D8",
"s. c #7D2DEE",
"d. c #7E2DE4",
"f. c #7E2DF2",
"g. c #7C30F1",
"h. c #7D33E5",
"j. c #882C9F",
"k. c #8D319B",
"l. c #8022A7",
"z. c #9533AE",
"x. c #8E2AB4",
"c. c #A93BBE",
"v. c #8629C5",
"b. c #902ACC",
"n. c #842FDB",
"m. c #8B2EDD",
"M. c #8831DC",
"N. c #8131DB",
"B. c #9233DE",
"V. c #A332CE",
"C. c #A436DD",
"Z. c #842EE5",
"A. c #8A2EE6",
"S. c #832DED",
"D. c #8A2DEC",
"F. c #922FEF",
"G. c #8431E4",
"H. c #8433EC",
"J. c #8B32EE",
"K. c #8930E7",
"L. c #9C33E4",
"P. c #9533ED",
"I. c #9E35EA",
"U. c #9336E8",
"Y. c #842DF2",
"T. c #8A2EF3",
"R. c #922EF4",
"E. c #9B2EF5",
"W. c #8330F3",
"Q. c #8C31F2",
"!. c #9932F3",
"~. c #A233EC",
"^. c #AA39E7",
"/. c #B23CE0",
"(. c #A432F5",
"). c #A934F4",
"_. c #BB36F4",
"`. c #C839F5",
"'. c #C539ED",
"]. c #B048CA",
"[. c #BD43F3",
"{. c #C74AD5",
"}. c #D148D1",
"|. c #C149CA",
" X c #D748EB",
".X c #DB52E9",
"XX c #C846F2",
"oX c #D349F4",
"OX c #DA49F4",
"+X c #CC4BE7",
"@X c #E94DE5",
"#X c #E64DED",
"$X c #E94DEC",
"%X c #E24DE5",
"&X c #E951E5",
"*X c #E351EB",
"=X c #EB51EB",
"-X c #E750E4",
";X c #E44CF3",
":X c #EB4BF1",
">X c #E553F1",
",X c #C3C0CA",
"<X c #CFCDD3",
"1X c #CECDD4",
"2X c #D0CED5",
"3X c #D2D1D6",
"4X c #D3D2D7",
"5X c #D4D2D8",
"6X c #DCDBDE",
"7X c #DEDDE1",
"8X c #EDEDEF",
"9X c #E3E2E5",
"0X c #FBFBFB",
"qX c #F9F9FA",
"wX c #FBFBFC",
"eX c #FDFDFD",
"rX c #FEFEFE",
"tX c white",
"yX c #FDFDFE",
"uX c #FFFFFF",
"iX c #F6F6F7",
/* pixels */
"tXtXtXtXtXtXtXtXtXtXtXtXtXtXtXtXtXtXtXtXtXtXtXtXtXtXtXtXtXtXtXtXtXtXtXtXtXtXtXtXtXtXtXtXtXtXtXtXtXtX",
"tXtXtXtXtXtXtXtXtXtXtXtXtXtXtXtXtXtXtXtXtXtXtXtXtXtXtXtXtXtXtXtXtXtXtXtXtXtXtXtXtXtXtXtXtXtXtXtXtXtX",
"tXtXtXtXtXtXtXtXtXtXtXtXtXtXtXtXtXtXtXtXtXtXtXtXtXtXtXtXtXtXtXtXtXtXtXtXtXtXtXtXtXtXtXtXtXtXtXtXtXtX",
"tXtXtXtXtXtXtXtXtXtXtXtXtXtXtXtXtXtXtXtXtXtXtXtXtXtXtXtXtXtXtXtXtXtXtXtXtXtXtXtXtXtXtXtXtXtXtXtXtXtX",
"tXtXtXtXtXtXtXtXtXtXtXtXtXtXtXtXtXtXtXtXtXtXtXtXtXwXtXtXtXtXtXtXtXtXtXtXtXtXtXtXtXtXtXtXtXtXtXtXtXtX",
"tXtXtXtXtXtXtXtXtXtXtXtXtXtXwXqX- & 7 & = = # = = & = = = & = ( 0XtXtXtXtXtXtXtXtXtXtXtXtXtXtXtXtXtX",
"tXtXtXtXtXtXtXtXtXtXtXtXtXtXqXqX- # $ # # $ $ = # = # = # = 2 n 0XtXtXtXwXtXtXtXtXtXtXtXtXtXtXtXtXtX",
"tXtXtXtXtXtXtXtXtXtXiX3X3X2X3X5Xl u u u u u u u u u u u a u a ) 5X5X2X3X3XtXtXtXtXtXtXtXtXtXtXtXtXtX",
"tXtXtXtXtXtXtXtXtXtX2X> 2 - 2 = T.T.D.T.T.D.T.T.Y.D.Y.D.T.S.T.t.& , , 2 5 tXtXtXtXtXtXtXtXtXtXtXtXtX",
"tXtXtXtXtXtXtXtXtXwX<X@ + # &   Y.D.Y.S.Y.Y.D.S.D.Y.T.S.S.T.T.t.X @ % @ - qXwXtXtXtXtXtXtXtXtXtXtXtX",
"tXtXtXtXtXtXtXqXY ] ) e.q.6.w.e.g g f g p g f g d g f g g g g K r.6.6.r.e.U ' | tXtXtXtXtXtXtXtXtXtX",
"tXtXtXtXtXtXqXqX2 & g Y.S.f.Y.Y.= = 1 = = 1 = = 1 = 2 1 1 2 = h Q.W.Y.W.T.= 2 U qXwXtXtXtXtXtXtXtXtX",
"tXtXtXtXtX9X6X9Xu q M T.F.Z.i.a.9 u w w w y y i 0 0 w w 0 0 w V !.!.D.Z.R.e u ( 9X7XqXtXtXtXtXtXtXtX",
"tXtXtXtX0Xv 2 % F.Q.S.Y.T.y +   Q.W.T.T.Y.Y.A.D.Z.Y.Y.T.Q.R.Q.I.:X:XI.Y.R.D.T.u.% # 1XwXtXtXtXtXtXtX",
"tXtXtXtX0Xv = O Q.J.D.T.F.a o & T.Y.Y.f.Y.T.1 3 1 / Y.S.s.f.Y.C.@X@XU.W.f.S.H.e.@ # 2XwXtXtXtXtXtXtX",
"tXtXtXtX0Xn , # J.T.t.& + w.Z.Z.T.T.Y.Y.&...l.>.x G +.i.f.s.Y.S.Z.A. X$X#XY.S.w.. = 1XtXtXtXtXtXtXtX",
"tXtXtXtX0Xv 1 . Q.T.e.= & r.Y.T.T.T.T.T.r % './.` z + y.T.Y.f.s.s.S. X:X$Xf.S.e.@ > 1XtXtXtXtXtXtXtX",
"tXtXtX8X8XT 4 1 N.h.q.> 4 e.T.S.S.D.n.M c.}.#.;.i.n.U.$.H n.s.S.s.S.oX;X*XZ.A.t.3 9 ,X8X8XtXtXtXtXtX",
"tXtXtX3 # p.T.R.X X h T.T.T.D.A.A.u.y.j ].{.W ^ a.M.B.l y y.i.Y.Y.S.Y.f.g.$X$XOXT.R.p , 3 tXtXtXtXtX",
"tXtXtX- o t.S.J.+ @ f Y.Y.Y.T.D.W.> t `.#.E ! ! _ :.:.S d ; J T.T.T.Y.S.f.#X#XoXY.T.a @ = tXtXtXtXtX",
"tXtXtX= . t.S.T.+ = f Y.Y.S.Z.<.m v.v.%.C k ~ ~ F E S k V V s f 1.T.T.T.Y.#X:XoXf.T.a @ = tXtXtXtXtX",
"tXtXtX2 * t.S.Q.+ # a Y.Y.Q.h.-.1 ^.C.N V N _ ~ N V V N V A p 0 =.S.T.T.Y.#X#XoXs.T.a # = tXtXtXtXtX",
"tXtXtX1 @ t.S.T.+ & a Y.Y.t.1 l W >X.XC C J W l S D V V V f / L.$.e J.Y.f.@X#XoXS.D.a O 7 tXtXtXtXtX",
"tXtXtX1 + t.S.T.. @ f Y.Y.w.> l E #X.X+.+.+.;.%.l S B m g A *.(.$.> H.S.s.@X#XoXf.T.a O 1 tXtXtXtXtX",
"tXtXtX1 @ t.S.T.+ @ a Y.T.w.# j Q :X;X(.E.(._.V.Z A B y y m.D.).*.1 W.Y.Y.@X#XoXf.T.a + = tXtXtXtXtX",
"tXtXtX1 + t.S.T.+ & f Y.Y.w.+ *.!.A.A.J R Q .X%X.Xz.B y.Z.F.v.B 0 9 H.T.S.@X#XoXs.D.a + 7 tXtXtXtXtX",
"tXtXtX1 + y.Y.D.+ @ p Y.T.w.# #.M.p.t.C F D ].}.%Xx.X.n.S.m.7.k 4 9 S.Y.f.-X#XoXS.T.a + = tXtXtXtXtX",
"tXtXtX1 + t.Y.T.+ - a S.Y.t.> h N B N N a q G %.`._.(.~.I.B d 0 6 0 J.T.Y.=X#XoXs.T.a + = tXtXtXtXtX",
"tXtXtX1 + t.S.Q.+ @ a Y.T.p.o.K y N k p d p P ^ l.b.E.v.7.k d 0 m X.J.S.Y.*X#XoXf.D.a + = tXtXtXtXtX",
"tXtXtX1 + y.s.Q.+ & a W.T.T.T.-.3 s A y d N E S y *.E.#.k u 4 0 ,.S.S.D.Y.;X#XoXg.T.u + = tXtXtXtXtX",
"tXtXtX> + t.S.Q.+ & f Y.Y.W.W.Q.U.; & 0 d N N k e &.Y...C 3 H T.J.f.W.S.Y.=X#XoXs.T.u + = tXtXtXtXtX",
"tXtXtX5 @ t.S.T.. & f Y.Y.Y.J.W.W.O.o.4 y d N m y &.f./ d ..,.Y.Y.Y.S.S.f.#X#XoXf.Q.s @ = tXtXtXtXtX",
"tXtXtX} | >.1.<.P K ..<.<.Z.S.A.A.T.Z.y 4 6 k d i @.S.H r Z.S.W.Y.Y.(.^.^.[.[.^.<.2.0.| } tXtXtXtXtX",
"tXtXtX0XqXv X + Q.W.u.& & w.T.T.S.f.S.S.a . q Q %Xk.< 5.n.D.Y.Y.Y.W.OX;X-Xs.W.t.+ 2 <XwX0XtXtXtXtXtX",
"tXtXtXtXwXU $ + J.T.t.& . t.T.T.T.Y.Y.Y.I w q Q *Xl.e r.D.S.Y.Y.W.Y.OX:X@XS.W.e.. 1 2XwXtXtXtXtXtXtX",
"tXtXtXtX0Xv > # W.S.S.i.N.g 9 3 Y.f.T.W.Y.T.7 # & ^ T.S.Y.S.S.P.;X#XL.A.J.T.W.e.X - 2XwXtXtXtXtXtXtX",
"tXtXtXtXqXb - % Y.T.D.Y.W.f > # T.Y.Y.f.f.T.2.4.4.t.J.d.Y.S.s.U.&X:XL.T.T.D.Y.e.# 2 2XwXtXtXtXtXtXtX",
"tXtXtXtXwX .[ [ w.5.q.H.T.O.H K ^.I.I.I.I.I.^.).).(.L.L.I.I.U.^.+XoXQ.H.R.w.w.9.[ { 6XtXtXtXtXtXtXtX",
"tXtXtXtXtXtXwXqX- + u T.G.Y.T.S.&X$X$X$X#X#X@X#X$X#X=X$X*X$X$X Xf.Y.S.S.R.= # c wXtXtXtXtXtXtXtXtXtX",
"tXtXtXtXtXtXtXqX5 : l Q.S.G.D.S.#X#X$X#X#X#X#X#X$X$X#X#X$X$X#XoXS.S.H.D.F.8 8 b wXtXtXtXtXtXtXtXtXtX",
"tXtXtXtXtXtXtXtXwXwX3X$ O   + O Y.Y.Y.f.f.f.f.s.s.f.s.f.f.W.f.y.    . O 5 qXqXwXtXtXtXtXtXtXtXtXtXtX",
"tXtXtXtXtXtXtXtXwXwX1X5 5 , 2 1 F.Y.T.Y.W.T.Y.Y.Y.Y.Y.T.Y.T.Y.t.= - 2 2 8 wXwXwXtXtXtXtXtXtXtXtXtXtX",
"tXtXtXtXtXtXtXtXtXtX6XU ] T Y ' w.w.e.w.e.r.e.e.e.e.e.e.e.e.w.3.] T ] Y U 0XtXtXtXtXtXtXtXtXtXtXtXtX",
"tXtXtXtXtXtXtXtXtXtXtXqXtXwXqXqX- + + @ + + # @ + + # + + + @ U wXwXwXwXqXtXtXtXtXtXtXtXtXtXtXtXtXtX",
"tXtXtXtXtXtXtXtXtXtXtXtXtXtX0XqX2 & - & = & 7 = 7 = 7 - = = - ( tXtXtXtXtXtXtXtXtXtXtXtXtXtXtXtXtXtX",
"tXtXtXtXtXtXtXtXtXtXtXtXtXtXtXtXtXtXtXtXtXtXtXtXtXtXtXtXtXtXtXtXtXtXtXtXtXtXtXtXtXtXtXtXtXtXtXtXtXtX",
"tXtXtXtXtXtXtXtXtXtXtXtXtXtXtXtXtXtXtXtXtXtXtXtXtXtXtXtXtXtXtXtXtXtXtXtXtXtXtXtXtXtXtXtXtXtXtXtXtXtX",
"tXtXtXtXtXtXtXtXtXtXtXtXtXtXtXtXtXtXtXtXtXtXtXtXtXtXtXtXtXtXtXtXtXtXtXtXtXtXtXtXtXtXtXtXtXtXtXtXtXtX",
"tXtXtXtXtXtXtXtXtXtXtXtXtXtXtXtXtXtXtXtXtXtXtXtXtXtXtXtXtXtXtXtXtXtXtXtXtXtXtXtXtXtXtXtXtXtXtXtXtXtX",
"tXtXtXtXtXtXtXtXtXtXtXtXtXtXtXtXtXtXtXtXtXtXtXtXtXtXtXtXtXtXtXtXtXtXtXtXtXtXtXtXtXtXtXtXtXtXtXtXtXtX"
};
