/* XPM */
static char *ae6d804d1df74fd0d317e4645df5bb70uR6l9cFMMRIRBdX7[] = {
/* columns rows colors chars-per-pixel */
"50 50 81 1 ",
"  c None",
". c black",
"X c #1E0F06",
"o c #5A2D12",
"O c #693415",
"+ c #783C18",
"@ c #6A3579",
"# c #964B1E",
"$ c #EE692C",
"% c #EF772F",
"& c #F07A43",
"* c #F07A44",
"= c #F07B45",
"- c #F18645",
"; c #F18646",
": c #F1804D",
"> c #F18351",
", c #F18553",
"< c #F39861",
"1 c #4B2482",
"2 c #512A8D",
"3 c #5F3C90",
"4 c #5F3D90",
"5 c #573098",
"6 c #6E3B81",
"7 c #5E36A3",
"8 c #6139A9",
"9 c #643CAE",
"0 c #673FB4",
"q c #1F50A4",
"w c #3763AE",
"e c #3863AE",
"r c #2964B3",
"t c #3B71B8",
"y c #79528F",
"u c #674796",
"i c #6D4992",
"p c #6D49B1",
"a c #6A42B9",
"s c #6E48BA",
"d c #4A6BAC",
"f c #4B6BAC",
"g c #446DB3",
"h c #3278C2",
"j c #7048C4",
"k c #764ECF",
"l c #7C54DA",
"z c #805ACD",
"x c #825CDC",
"c c #8B67DE",
"v c #8E6BDF",
"b c #8F6DDF",
"n c #906EE0",
"m c #9170E0",
"M c #9270E0",
"N c #9271E0",
"B c #EE50F8",
"V c #EF55F8",
"C c #F065F9",
"Z c #3680CA",
"A c #3681CA",
"S c #3782CA",
"D c #3E90D6",
"F c #4095D9",
"G c #449BDF",
"H c #459FE0",
"J c #47A3E3",
"K c #48A6E6",
"L c #4BAAEA",
"P c #4CAEED",
"I c #4EB1EF",
"U c #4EB1F0",
"Y c #50B6F4",
"T c #52B9F6",
"R c #53BCF9",
"E c #F7CCA8",
"W c #EA9BC4",
"Q c #C0C0C0",
"! c #CACACA",
"~ c #CBCBCB",
"^ c white",
/* pixels */
"                                                  ",
"                                                  ",
"                                                  ",
"                                                  ",
"                  qqqqqqqqq                       ",
"                  qqqqqqqqq                       ",
"               qqqHURHTRHHRqqq                    ",
"             qSRHHRLHRJHRRHRRHqq                  ",
"             qSRHHRLHRJHRRHRRHqq                  ",
"            qRUHRRHURHTRHHRHHRHHqq                ",
"          qqqqqqHHRLHRJHRRHRRHRRHhq               ",
"          qqqqqqHHRLHRJHRRHRRHRRHhq               ",
"        qqqg   qqqHURHTRHHRHHRHHRPHqq             ",
"       qq    qqqHHRLHRJHRRHRRHRRHPRqq             ",
"      q  q  fGDSUULPULIULLULLULLUPLGGf            ",
"      q  q  qRUHRRHURHTRHHRHHRHHRPHRRq            ",
"       qq   qqqqqqqqqqqqqqqqqqqqqqqqqq            ",
"          wtFYLFYYFLYFUYFFYFFYFFYKFYYFee          ",
"          qrHRUHRRHURHTRHHRHHRHHRPHRRHqq          ",
"          qqqqqqqqqqqqqqqqqqqqqqqqqqqqqq          ",
"            $E   $* $,      $  $$  EE$            ",
"            $E                     EE$            ",
"            $E     V         CB    EE$            ",
"            $E                     EE$            ",
"            $E   $* $,      $  $$  EE$            ",
"  -%%.%%-   $E                     EE$   %%%X%%<  ",
" .%%%.%%%.  $E                     EE$  O%%%X%%#  ",
" %.%%.%%.%% $E                     EE$ %#%%%X%%o% ",
" %%.%.%+%%%@1E^ WW   $     $$   W  EE11%%.%%X%.%% ",
"...........zj1        *$$$$        E1jl.......... ",
" %%.%.%+%%%zjlp  ^^               ualjl%%.%%X%.%% ",
" %.%%.%%.%%zjll1                 1llljl%#%%%X%%o% ",
" .%%%.%%%.lzjlll1                9llljll+%%%X%%#  ",
"   %%.%% 1l6jl8llkkkk  444skkkkkk0lllj2li%%%X%%   ",
"     $  E11 jl7lllll    lllllllll9lllj 1yE  *     ",
"      $$$   jl7llll  ll  llllllll9lllj  $$$$      ",
"            jlllllc llllll   Nlllllllj            ",
"            jl11llc llll  nll lll911lj            ",
"            jl51lllv    NNlll  lla51lj            ",
"            jl7llllll  ll lll  ll9lllj            ",
"            jl11lllllllll bll lll911lj            ",
"            jlllllllllllll   xlllllllj            ",
"            11111111111111111111111111            ",
"            $$:    $$$     $$$$    $$$            ",
"                                                  ",
"                                                  ",
"               !!!!!!!!!!!!!!!!~!!!               ",
"               QQQQQQQQQQQQQQQQQQQ                ",
"                                                  ",
"                                                  "
};
