/* XPM */
static char *_7a949ba732749caed1cb9466c2b581fIZsh4WCsHCdicW4J[] = {
/* columns rows colors chars-per-pixel */
"50 50 194 2 ",
"   c #000000",
".  c #0D0D0D",
"X  c #1E0705",
"o  c #111111",
"O  c #1B1A1B",
"+  c #0C191B",
"@  c #2E201F",
"#  c #101F2F",
"$  c #222222",
"%  c #2D2A2B",
"&  c gray19",
"*  c #3F3C3D",
"=  c #2C0A07",
"-  c #4C231A",
";  c #542C1B",
":  c #50271D",
">  c #5B341C",
",  c #57301B",
"<  c #483522",
"1  c #275A19",
"2  c #286218",
"3  c #2D6C1C",
"4  c #2F701D",
"5  c #32761F",
"6  c #366427",
"7  c #367E22",
"8  c #3B752B",
"9  c #74521D",
"0  c #4C443B",
"q  c #73473A",
"w  c #49643C",
"e  c #4A7C3C",
"r  c #131F57",
"t  c #753E52",
"y  c #2D4264",
"u  c #414141",
"i  c #484848",
"p  c #555555",
"a  c #5B5A5A",
"s  c #785A54",
"d  c #647357",
"f  c #636363",
"g  c gray44",
"h  c #7B7B7B",
"j  c #616172",
"k  c #932016",
"l  c #B1271B",
"z  c #A2361D",
"x  c #EB3323",
"c  c #EE4D2A",
"v  c #92274B",
"b  c #8E5F4F",
"n  c #807076",
"m  c #F16054",
"M  c #F26B60",
"N  c #398524",
"B  c #3A8825",
"V  c #3E9028",
"C  c #3E833C",
"Z  c #488239",
"A  c #539A3F",
"S  c #3F8B63",
"D  c #4B8744",
"F  c #5F804F",
"G  c #488C5C",
"H  c #4D9A42",
"J  c #58A448",
"K  c #469979",
"L  c #418A72",
"P  c #75976A",
"I  c #6F9964",
"U  c #58AD74",
"Y  c #6DBA76",
"T  c #7DA173",
"R  c #75B64B",
"E  c #87B57A",
"W  c #A09166",
"Q  c #D88245",
"!  c #F8B643",
"~  c #B8CE71",
"^  c #D6D250",
"/  c #E6DC50",
"(  c #FFFE55",
")  c #31608E",
"_  c #3A7B87",
"`  c #7A4BB6",
"'  c #5B6DAE",
"]  c #6C6FB3",
"[  c #605EC1",
"{  c #6F77C3",
"}  c #965194",
"|  c #A0609D",
" . c #B3719C",
".. c #AB5BAA",
"X. c #887CB1",
"o. c #AE6DB9",
"O. c #D844AB",
"+. c #CB64B9",
"@. c #9734CD",
"#. c #C33CE0",
"$. c #EC3AF7",
"%. c #B253DF",
"&. c #8F63D1",
"*. c #A169DE",
"=. c #9047CF",
"-. c #D349D9",
";. c #C74FCB",
":. c #CE74D1",
">. c #E647EF",
",. c #ED70F5",
"<. c #519F8D",
"1. c #65858A",
"2. c #56A98C",
"3. c #56AF94",
"4. c #7CB697",
"5. c #5194B2",
"6. c #738BBB",
"7. c #4DA3B5",
"8. c #54A7BE",
"9. c #57B7BE",
"0. c #54B0A2",
"q. c #6CB0B2",
"w. c #7BCABB",
"e. c #66DBB2",
"r. c #62C1B6",
"t. c #68E0A8",
"y. c #7A97D6",
"u. c #6C9CD1",
"i. c #53AEC2",
"p. c #5AA4C3",
"a. c #55B6C8",
"s. c #56B7C9",
"d. c #5AB5D3",
"f. c #65ACD5",
"g. c #63A6D0",
"h. c #63BDD5",
"j. c #64B2D7",
"k. c #73B0CE",
"l. c #5BC0CC",
"z. c #5DC2D6",
"x. c #5CC4D8",
"c. c #74C8C1",
"v. c #838282",
"b. c gray55",
"n. c gray60",
"m. c #909090",
"M. c #AD9A96",
"N. c #B2968E",
"B. c #89B690",
"V. c #B3A29F",
"C. c gray63",
"Z. c #ADAAAB",
"A. c #B0B0B0",
"S. c gray74",
"D. c #BCAAB3",
"F. c #F38B82",
"G. c #F7A59E",
"H. c #F09FB1",
"J. c #A5D19E",
"K. c #D6C5BF",
"L. c #8986CA",
"P. c #8FBFC8",
"I. c #99BEC5",
"U. c #BEA1D8",
"Y. c #80A2E0",
"T. c #D58DCC",
"R. c #ED94C9",
"E. c #D6B7C1",
"W. c #C4B2C0",
"Q. c #F191F9",
"!. c #EEBEF0",
"~. c #F4BCF8",
"^. c #F0A9F3",
"/. c #96C9D2",
"(. c #AAD3D8",
"). c #C1C1C1",
"_. c gray80",
"`. c #D3D3D3",
"'. c gray86",
"]. c #EAC9D4",
"[. c #D8E5D5",
"{. c #E1EEDE",
"}. c #FCE1DF",
"|. c #F6C5FA",
" X c #F5DCEF",
".X c #C7E2E7",
"XX c #EBECEC",
"oX c #E5E4E4",
"OX c #F7E0EB",
"+X c #EAF2E8",
"@X c #F7ECF5",
"#X c #F4F3F3",
"$X c #FFFFFF",
"%X c #FAF4F8",
/* pixels */
"$X$X$X$X$X$X$X$X$X$X$X$X$X$X$X$X$X$X$X$X$X$X$X$X$X$X$X$X$X$X$X$X$X$X$X$X$X$X$X$X$X$X$X$X$X$X$X$X$X$X",
"$X$X$X$X$X$X$X$X$X$X$X$X$X$X$X$X$X$X$X$X$X$X$X$X$X$X$X$X$X$X$X$X$X$X$X$X$X$X$X$X$X$X$X$X$X$X$X$X$X$X",
"$X$X$X$X$X$X$X$X$X$X$X$X$X$X$X$X$X$X$X$X$X$X$X$X$X$X$X$X$X$X$X$X$X$X$X$X$X$X$X$X$X$X$X$X$X$X$X$X$X$X",
"$X$X$X$X$X$X$X$X$X$X$X$X$X$X$X$X$X$X$X$X$X$X$X$X$X$X$X$X$X$X$X$X$X$X$X$X$X$X$X$X$X$X$X$X$X$X$X$X$X$X",
"$X$X$X$X$X$X$X$X$X$X$X$X$X$X$X$X$X$X$X$X$X$X$X$X$X$X$X$X$X$X$X$X$X$X$X$X$X$X$X$X$X$X$X$X$X$X$X$X$X$X",
"$X$X$X$X$X$X$X$X$X$X$X$X$X$X$X$X$Xg &               g $X$X$X$X$X$X$X$X$X$X$X$X$X$X$X$X$X$X$X$X$X$X$X",
"$X$X$X$X$X$X$X$X$X$X$X$XG.}.$X$Xa                     p $X$X$XF.%X$X$X$X$X$X$X$X$X$X$X$X$X$X$X$X$X$X",
"$X$X$X$X$X$X$X$X$X$X$X$X$Xm $X$X.                       $X$Xx $X$X$X$X$X$X$X$X$X$X$X$X$X$X$X$X$X$X$X",
"$X$X$X$X$X$X$X$X$X$X$X$X$X$XM ].).l l l l l l l l l l ).).F.$X$X$X$X$X$X$X$X$X$X$X$X$X$X$X$X$X$X$X$X",
"$X$X$X$X$X$X$X$X$X$X$X$X$X$X& X                           @ $X$X$X$X$X$X$X$X$X$X$X$X$X$X$X$X$X$X$X$X",
"$X$X$X$X$X$X$X$X$X$X$X$X$Xu                                   $X$X$X$X$X$X$X$X$X$X$X$X$X$X$X$X$X$X$X",
"$X$X$X$X$X$X$X$X$X$X$X$X                                        `.$X$X$X$X$X$X$X$X$X$X$X$X$X$X$X$X$X",
"$X$X$X$X$X$X$X$X$X$XA.                                            v.$X$X$X$X$X$X$X$X$X$X$X$X$X$X$X$X",
"$X$X$X$X$X$X$X$X$XXX                                      k x       f $X$X$X$X$X$X$X$X$X$X$X$X$X$X$X",
"$X$X$X$X$X$X$X$X$XXX                                    X z c X     f $X$X$X$X$X$X$X$X$X$X$X$X$X$X$X",
"$X$X$X$X$X$X$X$X$XXX                                    x ! ( x =   f $X$X$X$X$X$X$X$X$X$X$X$X$X$X$X",
"$X$X$X$X$X$X$X$X$XXX                                      k x       f $X$X$X$X$X$X$X$X$X$X$X$X$X$X$X",
"$X$X$X$X$X$X$X$X$XXX                    v                           f $X$X$X$X$X$X$X$X$X$X$X$X$X$X$X",
"$X$X$X$X$X$X$X$X$XXX                O A.% o .                       f $X$X$X$X$X$X$X$X$X$X$X$X$X$X$X",
"$X$X$X$X$X$X$X$X$XoX                h oX                  v.`.      a $X$X$X$X$X$X$X$X$X$X$X$X$X$X$X",
"$X$X$X$X$X$X$X$X$XXX                  $X  A.$X              $X  .   f $X$X$X$X$X$X$X$X$X$X$X$X$X$X$X",
"$X$X$X$X$X$X$Xi $XXX    f               O `.$Xa               O O   f $X$X$X$X$X$X$X$X$X$X$X$X$X$X$X",
"$X$X$X$X$X$X  h $XXX    oXO             C.$X$X'.o             Z.%   f $X$X$X$X$X$X$X|.|.$X$X$X$X$X$X",
"$X$X$X$X$X$ _.p $XXX    $X$X          $X$X$X$X$X$X          $X%X%   f $X$X$X$X$X$X$X~.$XQ.$X$X$X$X$X",
"$X$X$X$XXX0 ).p $XXX    $X$X$X$X$X$X$X$X$X$X$X$X$X$X$X$X$X$X$X%X%   f $X$X$X$X$X$XQ.$X$X$X$X$X$X$X$X",
"$X$X$X$XA.S.n.p $XoX    $Xf u v.$X$Xb.u u ).$Xu u u $X$XoX< u %X%   f $X$XV.s s T.t M.$X$X$X$X$X$X$X",
"$X$X$X$XD.I.n.p $X7.7.oX).  R.].$X  O &         % &   $X$XR.  * OX7.5.+X#Xq b b T.b q XX$X$X$X$X$X$X",
"$X$X$X$Xi C.n.p i.x.k.9.)   C.f   o .               O   o C.  # 7.x.k.9.- N.K.E.E.K.N.: $X$X$X$X$X$X",
"$X$X$X$X% a p 0 x.2.3.x.8.y             g `.$Xg .           r B.h.3.2.z.- , - - - > ; - $X$X$X$X$X$X",
"$X$X$X$Xa $X  < x.x.H J h.z.x._     m.$X$X$X$X$X$X$X    + x.x.x.U Z 3.z.- > 9 ; ; 9 , : $X$X$X$X$X$X",
"$X$X$X$Xa $X  < m l.U D x.h.O.z.D z.(.$X$X$X$X$X$X%X9.D x.o.z.x.G J x.Q - > - ; ; - , ; $X$X$X$X$X$X",
"$X$X$X$Xa %X  < 9.I.z.z.s.L.' u.x.8 G /.$X$X$X$X/.S D x.h.] X.s.x.x.s.7.j - 9 - ; 9 - M.$X$X$X$X$X$X",
"$X$X$X$XA.      $XXXs.t.x.x.x.2.x.x.D x.h.$X$X.Xh.Z <.z.l.0.x.z.t.x./.$X+X- - ; ; 9 - oX$X$X$X$X$X$X",
"$X$X$X$X$X$X$X$X$XXXs.e.r.J R x./ x.x.@.g.6./ { =.x.z./ z.Y A Y e.x.P.$X$X$X$X- - $X$X$X$X$X$X$X$X$X",
"$X$X$X$X$X$X$X$X$XXXg.x.9.Y x.w.4.~ x.u.o.8.4.&.u.x.J.4.J.l.Y 2.x.L.P.$X$X$X|.#XR.!.@X%X$X$X$X$X$X$X",
"$X$X$X$X$X$X$X$X$XXXW %.g.d.` x.c.x.x.j.d.i.q.d.f.x.x.c.x.{ h.] *.W P.$X$X$XOXe +.d P %X$X$X$X$X$X$X",
"$X$X$X$X$X$X$X$X$XXX&.x.z.~ z.z.z.C <.x.d.' / [ x.x.Z z.z.x.^ y.k.#.P.$X#X^.V 3 3 V 4 +X$.$X$X$X$X$X",
"$X$X$X$X$X$X$X$X$XXX9.a.8.p.] a.<.S 0.s.' 0.7.1.i.a.K K s.L.<. . .K U.$X$XT Z 6 w V w 6 $X$X$X$X$X$X",
"$X$X$X$X$X$X$X$X$XXX  OXD.      OXOXOXOX        '.OXOXOX-.1 2 N B 2 E >.@Xj Z 3 3 $.3 2 $.$X$X$X$X$X",
"$X$X$X$X$X$X$X$X$X#X    u $X$X$Xo       $X$X$X$X#       [.} 2 N B 2 } +X$X$XV ;.3 V ..+X$X$X$X$X$X$X",
"$X$X$X$X$X$X$X$X$X#X# @ p $X$X$X% $ $ O $X$X$X$Xu $ $ $ %.7 2 N e 2 N -.$XXX$X8 8 J I $X$X$X$X$X$X$X",
"$X$X$X$X$X$X$X$X$X$X$X$X$X$X$X$X$X$X$X$X$X$X$X$X$X$X$X$X+.7 2 N d 2 7 :.$XH.,.$X$X$X$X$X$X$X$X$X$X$X",
"$X$X$X$X$X$X$X$X$X$X$X$X$X$X$X$X$X$X$X$X$X$X$X$X$X$X$X$X[.N $.N B $.7 +X$X| V Z ,.$X$X$X$X$X$X$X$X$X",
"$X$X$X$X$X$X$X$X$X$X$X$X#X).S.K.).).S.).).).S.).S.S.S.K.S.E 2 N B 2 J.|.2 w Z } W.$X$X$X$X$X$X$X$X$X",
"$X$X$X$X$X$X$X$X$X$X$X$X$X$X$X$X$X$X$X$X$X$X$X$X$X$X$X$X$X$X$X$X$X$X$X$XI 5 n 8 {.$X$X$X$X$X$X$X$X$X",
"$X$X$X$X$X$X$X$X$X$X$X$X$X$X$X$X$X$X$X$X$X$X$X$X$X$X$X$X$X$X$X$X$X$X$X$X$X+X@X+X$X$X$X$X$X$X$X$X$X$X",
"$X$X$X$X$X$X$X$X$X$X$X$X$X$X$X$X$X$X$X$X$X$X$X$X$X$X$X$X$X$X$X$X$X$X$X$X$X$X$X$X$X$X$X$X$X$X$X$X$X$X",
"$X$X$X$X$X$X$X$X$X$X$X$X$X$X$X$X$X$X$X$X$X$X$X$X$X$X$X$X$X$X$X$X$X$X$X$X$X$X$X$X$X$X$X$X$X$X$X$X$X$X",
"$X$X$X$X$X$X$X$X$X$X$X$X$X$X$X$X$X$X$X$X$X$X$X$X$X$X$X$X$X$X$X$X$X$X$X$X$X$X$X$X$X$X$X$X$X$X$X$X$X$X",
"$X$X$X$X$X$X$X$X$X$X$X$X$X$X$X$X$X$X$X$X$X$X$X$X$X$X$X$X$X$X$X$X$X$X$X$X$X$X$X$X$X$X$X$X$X$X$X$X$X$X"
};
