/* XPM */
static char *_4511fb171c54d25f51e587eccac604967q9FjDAX91rPIsc[] = {
/* columns rows colors chars-per-pixel */
"50 50 82 1 ",
"  c #242425",
". c #232323",
"X c #202020",
"o c #1E1E1E",
"O c #1B1B1B",
"+ c gray5",
"@ c #060606",
"# c #060607",
"$ c #251133",
"% c #080809",
"& c gray3",
"* c #161616",
"= c #1D1D1D",
"- c gray7",
"; c #131213",
": c #2F1B3C",
"> c #020203",
", c black",
"< c #020202",
"1 c gray8",
"2 c gray9",
"3 c #151415",
"4 c #311D3E",
"5 c #311E3E",
"6 c #32203F",
"7 c #151515",
"8 c #352442",
"9 c #020204",
"0 c #352542",
"q c #030203",
"w c #111111",
"e c #191919",
"r c gray10",
"t c gray11",
"y c #010101",
"u c #0B0B0B",
"i c gray1",
"p c gray6",
"a c #0E0E0E",
"s c #030204",
"d c #0F0E10",
"f c #101010",
"g c #31213E",
"h c #1E1D1F",
"j c gray4",
"k c #090909",
"l c #09090A",
"z c #2C1C39",
"x c #323132",
"c c #313131",
"v c #2F2F2F",
"b c #040404",
"n c #010102",
"m c #261633",
"M c #333234",
"N c #323232",
"B c #261632",
"V c #291C32",
"C c #2C2333",
"Z c #302B33",
"A c gray19",
"S c gray18",
"D c gray17",
"F c #2A2A2A",
"G c #0C0C0C",
"H c #363139",
"J c gray16",
"K c gray14",
"L c #100F10",
"P c #3B373E",
"I c gray15",
"U c gray12",
"Y c #403B43",
"T c #333235",
"R c #2F2E30",
"E c #2D2D2D",
"W c #131313",
"Q c #141314",
"! c #3E3A42",
"~ c #141315",
"^ c #181818",
"/ c #070707",
/* pixels */
" ........XoooooooooooooooooooooooooooooO+@@@@@@@#$",
"%@@@@@@@&*ooooooooooooooooooooooooooooo=*-------;:",
">,,,,,,,<1ooooooooooooooooooooooooooooo=2111111134",
">,,,,,,,<1ooooooooooooooooooooooooooooo=2111111134",
">,,,,,,,<1ooooooooooooooooooooooooooooo=2111111135",
">,,,,,,,<1ooooooooooooooooooooooooooooo=2111111136",
">,,,,,,,<1ooooooooooooooooooooooooooooo=2111111178",
"9,,,,,,,<1ooooooooooooooooooooooooooooo=2111111170",
">,,,,,,,<1ooooooooooooooooooooooooooooo=2111111170",
"q,,,,,,,<werrrrrrrrtooooooooooooooooooo=2111111170",
"q,,,,,,,yuw--------2=oooooooooooooooooo=2111111170",
"q,,,,,,,,y<<<<<<<<ip=oooooooooooooooooo=2111111170",
"q,,,,,,,,,,,,,,,,,ya=oooooooooooooooooo=2111111170",
"q,,,,,,,,,,,,,,,,,ya=oooooooooooooooooo=2111111170",
"s,,,,,,,,,,,,,,,,,ya=oooooooooooooooooo=2111111170",
"q,,,,,,,,,,,,,,,,,ya=oooooooooooooooooo=2111111170",
"q,,,,,,,,,,,,,,,,,ya=oooooooooooooooooo=2111111170",
"q,,,,,,,,,,,,,,,,,ya=oooooooooooooooooo=2111111170",
"syyyyyyyyyyyyyyyyyya=oooooooooooooooooo=2111111170",
"d++++++++++++++++++w*222222222222222222*wpppppppfg",
"h=================t*a+++++++++++++++++++jkkkkkkklz",
"xcccccccccccccccccvtbyyyyyyyyyyyyyyyyyyyyyyyyyyynm",
"MNNNNNNNNNNNNNNNNNc=iy,,,,,,,,,,,,,,,,,,,,,,,,,,yB",
"MNNNNNNNNNNNNNNNNNc=iy,,,,,,,,,,,,,,,,,,,,,,,,,,yB",
"MNNNNNNNNNNNNNNNNNc=iy,,,,,,,,,,,,,,,,,,,,,,,,,,yV",
"MNNNNNNNNNNNNNNNNNc=iy,,,,,,,,,,,,,,,,,,,,,,,,,,yC",
"MNNNNNNNNNNNNNNNNNc=iy,,,,,,,,,,,,,,,,,,,,,,,,,,yZ",
"MNNNNNNNNNNNNNNNNNc=iy,,,,,,,,,,,,,,,,,,,,,,,,,,yZ",
"MNNNNNNNNNNNNNNNNNA=byyyyyyyyyyyyyyyyyyyyyyyyyyy<Z",
"MNNNNNNNNSDDDDDDDDF=+GGGGGGGGGGGGGGGGGGuk&&&&&&&kH",
"MNNNNNNNcJKKKKKKKKKo*******************1fpppppppLP",
"MNNNNNNNcIUoooooooooooooooooooooooooooo=211111117Y",
"MNNNNNNNcIUoooooooooooooooooooooooooooo=211111117Y",
"MNNNNNNNcIUoooooooooooooooooooooooooooo=211111117Y",
"TNNNNNNNcIUoooooooooooooooooooooooooooo=211111117Y",
"TNNNNNNNcIUoooooooooooooooooooooooooooo=211111117Y",
"TNNNNNNNcIUoooooooooooooooooooooooooooo=211111117Y",
"TNNNNNNNcIUoooooooooooooooooooooooooooo=211111117Y",
"TNNNNNNNcIUoooooooooooooooooooooooooooo=211111117Y",
"TNNNNNNNcIUoooooooooooooooooooooooooooo=211111117Y",
"TNNNNNNNcIUoooooooooooooooooooooooooooo=211111117Y",
"MNNNNNNNcIUoooooooooooooooooooooooooooo=211111117Y",
"TNNNNNNNcIUoooooooooooooooooooooooooooo=211111117Y",
"TNNNNNNNcIUoooooooooooooooooooooooooooo=211111117Y",
"TNNNNNNNcIUoooooooooooooooooooooooooooo=211111117Y",
"TNNNNNNNcIUoooooooooooooooooooooooooooo=211111117Y",
"TNNNNNNNcIUoooooooooooooooooooooooooooo=211111117Y",
"TNNNNNNNcIUoooooooooooooooooooooooooooo=211111117Y",
"RSSSSSSSE.tttttttttt=oooooooooooooooooot*WWWWWWWQ!",
"~--------auuuuuuuuuf2^^^^^^^^^^^^^^^^^2*G///////&H"
};
